<svg version="1.1" id="Layer_1" xmlns="http://www.w3.org/2000/svg" xmlns:xlink="http://www.w3.org/1999/xlink" x="0px" y="0px"
	 width="100%" viewBox="0 0 512 512" enable-background="new 0 0 512 512" xml:space="preserve">
<path fill="#04A558" opacity="1.000000" stroke="none" 
	d="
M513.000000,225.000000 
	C513.000000,246.020889 513.000000,267.041779 512.586792,288.406952 
	C511.774628,289.418427 511.136078,290.044769 511.014221,290.759247 
	C509.902832,297.275177 509.142456,303.861053 507.791687,310.324493 
	C498.548035,354.555267 478.717102,393.625275 448.763733,427.265320 
	C422.155762,457.148193 390.263672,480.012085 352.892059,494.849243 
	C334.853241,502.011017 316.376251,507.599976 296.635468,509.979675 
	C263.884399,504.998993 233.782761,493.837585 205.621216,477.295197 
	C178.761292,461.517395 156.033142,441.011658 136.292252,417.018829 
	C120.382812,397.682648 108.205658,376.145020 98.706947,353.110870 
	C91.005890,334.436035 85.399330,315.097443 83.379379,294.986572 
	C140.036545,327.674377 196.357346,360.289337 252.614243,393.014130 
	C255.673355,394.793610 257.898560,395.104370 261.157318,393.208160 
	C337.696259,348.671722 414.314026,304.270691 490.910583,259.833252 
	C492.283569,259.036713 493.574829,258.099304 495.309204,256.962158 
	C493.752838,255.961853 492.697266,255.222702 491.586700,254.578339 
	C414.703857,209.970856 337.802795,165.394638 260.979614,120.684654 
	C257.871674,118.875877 255.757828,119.167046 252.872375,120.848686 
	C211.741135,144.820023 170.563599,168.712067 129.361984,192.562378 
	C113.963982,201.475800 98.475060,210.232162 83.030579,218.639389 
	C87.270103,189.627213 96.463776,162.733429 109.849739,137.109161 
	C126.955864,104.363533 150.540894,77.068062 179.467926,54.530247 
	C214.133926,27.521076 253.415054,10.586644 297.429810,4.023498 
	C299.347626,4.187522 300.861969,4.187541 302.321075,4.471549 
	C330.969513,10.047774 358.155396,19.508598 383.635773,33.981304 
	C411.232910,49.656342 434.964844,69.889557 455.134125,94.167694 
	C469.859558,111.892952 481.929657,131.413956 491.232208,152.657562 
	C500.995056,174.952408 507.769379,197.986191 510.972900,222.101089 
	C511.110779,223.138824 512.300354,224.036865 513.000000,225.000000 
M468.974121,144.045609 
	C468.985535,142.718506 469.021088,141.391098 469.004608,140.064346 
	C468.858917,128.334930 456.125336,121.010117 445.714203,126.661720 
	C439.075073,130.265732 435.688568,137.670258 437.450348,144.730301 
	C439.190460,151.703384 445.177338,156.765869 451.952972,156.993652 
	C460.912170,157.294861 466.386658,153.390335 468.974121,144.045609 
M442.524994,114.695686 
	C442.146332,113.425529 441.910034,112.090302 441.364410,110.896477 
	C439.012970,105.751984 434.177368,103.194115 428.775391,104.127419 
	C424.563965,104.855026 420.618347,109.007767 420.069336,113.290520 
	C419.272552,119.506042 421.299011,123.338676 426.704742,125.840141 
	C434.047089,129.237793 440.501801,124.991585 442.524994,114.695686 
z"/>
<path fill="#03914A" opacity="1.000000" stroke="none" 
	d="
M297.000671,3.991718 
	C253.415054,10.586644 214.133926,27.521076 179.467926,54.530247 
	C150.540894,77.068062 126.955864,104.363533 109.849739,137.109161 
	C96.463776,162.733429 87.270103,189.627213 82.903168,218.851379 
	C82.530022,219.707047 82.284561,219.926941 81.692886,220.194382 
	C60.482327,232.336807 39.615269,244.428650 17.785448,257.078400 
	C39.859871,269.713562 60.948364,281.784393 82.222748,294.018188 
	C82.691360,294.370850 82.898300,294.622803 83.029472,294.937012 
	C85.399330,315.097443 91.005890,334.436035 98.706947,353.110870 
	C108.205658,376.145020 120.382812,397.682648 136.292252,417.018829 
	C156.033142,441.011658 178.761292,461.517395 205.621216,477.295197 
	C233.782761,493.837585 263.884399,504.998993 296.358093,510.270508 
	C293.992920,511.401367 291.496460,512.200684 289.000000,513.000000 
	C267.979095,513.000000 246.958206,513.000000 225.519958,512.585205 
	C222.764221,511.722504 220.428284,511.261536 218.087158,510.828491 
	C194.958710,506.550110 172.486374,500.349976 150.932693,490.584930 
	C127.368996,479.909180 105.953407,466.051361 86.769722,448.930267 
	C73.045410,436.681549 60.482460,423.199524 49.659538,408.156952 
	C24.455912,373.126892 8.483982,334.474670 2.920997,291.595184 
	C2.800029,290.662750 1.663036,289.862122 1.000003,289.000000 
	C1.000000,267.645782 1.000000,246.291550 1.411031,224.520523 
	C2.893652,218.860580 3.986181,213.621628 5.033396,208.373611 
	C11.239169,177.273941 22.363501,148.125549 39.288940,121.223976 
	C54.874023,96.452789 74.102722,74.982185 96.893326,56.646717 
	C118.731247,39.077713 142.762070,25.421810 169.136795,15.935188 
	C186.584305,9.659560 204.413254,4.921487 222.904556,2.896799 
	C223.663177,2.813736 224.304184,1.656681 225.000000,0.999998 
	C246.020889,1.000000 267.041779,1.000000 288.470581,1.403691 
	C291.585846,2.535494 294.293274,3.263606 297.000671,3.991718 
z"/>
<path fill="#000000" opacity="1.000000" stroke="none" 
	d="
M289.468658,513.000000 
	C291.496460,512.200684 293.992920,511.401367 296.766724,510.311218 
	C316.376251,507.599976 334.853241,502.011017 352.892059,494.849243 
	C390.263672,480.012085 422.155762,457.148193 448.763733,427.265320 
	C478.717102,393.625275 498.548035,354.555267 507.791687,310.324493 
	C509.142456,303.861053 509.902832,297.275177 511.014221,290.759247 
	C511.136078,290.044769 511.774628,289.418427 512.586792,288.875610 
	C513.000000,363.593719 513.000000,438.187408 513.000000,513.000000 
	C438.645905,513.000000 364.291626,513.000000 289.468658,513.000000 
z"/>
<path fill="#000000" opacity="1.000000" stroke="none" 
	d="
M297.429810,4.023499 
	C294.293274,3.263606 291.585846,2.535494 288.939209,1.403691 
	C363.593719,1.000000 438.187408,1.000000 513.000000,1.000000 
	C513.000000,75.354088 513.000000,149.708389 513.000000,224.531342 
	C512.300354,224.036865 511.110779,223.138824 510.972900,222.101089 
	C507.769379,197.986191 500.995056,174.952408 491.232208,152.657562 
	C481.929657,131.413956 469.859558,111.892952 455.134125,94.167694 
	C434.964844,69.889557 411.232910,49.656342 383.635773,33.981304 
	C358.155396,19.508598 330.969513,10.047774 302.321075,4.471549 
	C300.861969,4.187541 299.347626,4.187522 297.429810,4.023499 
z"/>
<path fill="#000000" opacity="1.000000" stroke="none" 
	d="
M1.000003,289.468658 
	C1.663036,289.862122 2.800029,290.662750 2.920997,291.595184 
	C8.483982,334.474670 24.455912,373.126892 49.659538,408.156952 
	C60.482460,423.199524 73.045410,436.681549 86.769722,448.930267 
	C105.953407,466.051361 127.368996,479.909180 150.932693,490.584930 
	C172.486374,500.349976 194.958710,506.550110 218.087158,510.828491 
	C220.428284,511.261536 222.764221,511.722504 225.051300,512.585205 
	C150.406296,513.000000 75.812599,513.000000 1.000000,513.000000 
	C1.000000,438.645905 1.000000,364.291626 1.000003,289.468658 
z"/>
<path fill="#000000" opacity="1.000000" stroke="none" 
	d="
M224.531342,0.999998 
	C224.304184,1.656681 223.663177,2.813736 222.904556,2.896799 
	C204.413254,4.921487 186.584305,9.659560 169.136795,15.935188 
	C142.762070,25.421810 118.731247,39.077713 96.893326,56.646717 
	C74.102722,74.982185 54.874023,96.452789 39.288940,121.223976 
	C22.363501,148.125549 11.239169,177.273941 5.033396,208.373611 
	C3.986181,213.621628 2.893652,218.860580 1.411031,224.051865 
	C1.000000,149.739456 1.000000,75.478920 1.000000,1.000000 
	C75.354088,1.000000 149.708389,1.000000 224.531342,0.999998 
z"/>
<path fill="#FBC13D" opacity="1.000000" stroke="none" 
	d="
M83.379379,294.986572 
	C82.898300,294.622803 82.691360,294.370850 82.228561,293.574646 
	C81.366058,278.923645 80.244942,264.882172 80.147675,250.833603 
	C80.076874,240.608521 81.358002,230.374084 82.036392,220.143814 
	C82.284561,219.926941 82.530022,219.707047 82.900192,219.272141 
	C98.475060,210.232162 113.963982,201.475800 129.361984,192.562378 
	C170.563599,168.712067 211.741135,144.820023 252.872375,120.848686 
	C255.757828,119.167046 257.871674,118.875877 260.979614,120.684654 
	C337.802795,165.394638 414.703857,209.970856 491.586700,254.578339 
	C492.697266,255.222702 493.752838,255.961853 495.309204,256.962158 
	C493.574829,258.099304 492.283569,259.036713 490.910583,259.833252 
	C414.314026,304.270691 337.696259,348.671722 261.157318,393.208160 
	C257.898560,395.104370 255.673355,394.793610 252.614243,393.014130 
	C196.357346,360.289337 140.036545,327.674377 83.379379,294.986572 
M197.707703,180.092300 
	C196.317612,180.403870 194.417313,180.241409 193.617905,181.101791 
	C187.038452,188.183121 180.640396,195.434372 174.295837,202.728470 
	C173.985352,203.085434 174.685059,204.321091 174.674408,205.770935 
	C161.834518,227.004745 156.963638,249.931030 161.575043,274.327454 
	C171.792358,328.381439 219.990540,362.762054 274.362335,353.758362 
	C310.223633,347.819885 335.196930,326.847198 349.395447,292.395874 
	C353.743561,281.025208 356.204315,269.310669 355.927124,256.163574 
	C355.114197,249.240524 354.966888,242.160995 353.382019,235.419418 
	C341.730865,185.859085 296.245514,154.083649 245.570541,160.195679 
	C228.104370,162.302307 212.100433,168.539215 197.707703,180.092300 
z"/>
<path fill="#00B564" opacity="1.000000" stroke="none" 
	d="
M468.944519,144.470825 
	C466.386658,153.390335 460.912170,157.294861 451.952972,156.993652 
	C445.177338,156.765869 439.190460,151.703384 437.450348,144.730301 
	C435.688568,137.670258 439.075073,130.265732 445.714203,126.661720 
	C456.125336,121.010117 468.858917,128.334930 469.004608,140.064346 
	C469.021088,141.391098 468.985535,142.718506 468.944519,144.470825 
z"/>
<path fill="#00B564" opacity="1.000000" stroke="none" 
	d="
M442.521057,115.066833 
	C440.501801,124.991585 434.047089,129.237793 426.704742,125.840141 
	C421.299011,123.338676 419.272552,119.506042 420.069336,113.290520 
	C420.618347,109.007767 424.563965,104.855026 428.775391,104.127419 
	C434.177368,103.194115 439.012970,105.751984 441.364410,110.896477 
	C441.910034,112.090302 442.146332,113.425529 442.521057,115.066833 
z"/>
<path fill="#DCA22C" opacity="1.000000" stroke="none" 
	d="
M81.692886,220.194382 
	C81.358002,230.374084 80.076874,240.608521 80.147675,250.833603 
	C80.244942,264.882172 81.366058,278.923645 82.042664,293.411682 
	C60.948364,281.784393 39.859871,269.713562 17.785448,257.078400 
	C39.615269,244.428650 60.482327,232.336807 81.692886,220.194382 
z"/>
<path fill="#3F446D" opacity="1.000000" stroke="none" 
	d="
M349.062042,293.027802 
	C335.196930,326.847198 310.223633,347.819885 274.362335,353.758362 
	C219.990540,362.762054 171.792358,328.381439 161.575043,274.327454 
	C156.963638,249.931030 161.834518,227.004745 175.258255,205.391907 
	C199.777145,205.528229 223.254547,209.140335 246.143158,216.097153 
	C283.878571,227.566544 316.526337,246.725739 339.918854,279.473053 
	C343.085632,283.906250 346.020050,288.505463 349.062042,293.027802 
M190.173996,237.911743 
	C195.270355,235.609680 197.152740,232.367508 195.458298,228.492813 
	C193.954254,225.053513 190.934433,222.883759 187.584930,224.389435 
	C185.221725,225.451752 182.607178,228.536789 182.289658,231.000336 
	C181.726379,235.370865 184.901749,237.772385 190.173996,237.911743 
M277.076996,253.655457 
	C275.042175,250.506119 272.207642,249.094788 268.629700,250.501968 
	C264.928558,251.957611 263.329865,254.925385 264.269531,258.854614 
	C265.139557,262.492828 269.281250,264.759064 272.792542,263.773926 
	C276.717346,262.672760 278.320770,259.410889 277.076996,253.655457 
M182.082596,286.831299 
	C181.769852,291.338715 183.847809,294.270905 188.264450,294.869476 
	C192.274063,295.412842 194.989609,293.122070 195.812805,289.284698 
	C196.608246,285.576630 194.813110,282.700867 191.288452,281.482330 
	C186.922516,279.972900 184.004913,282.059235 182.082596,286.831299 
M225.340744,301.073914 
	C228.477814,299.033051 229.903076,296.209778 228.487900,292.624908 
	C227.026016,288.921722 224.061523,287.326385 220.134018,288.270477 
	C216.495865,289.145020 214.237823,293.281921 215.218979,296.799286 
	C216.312210,300.718445 219.588776,302.325256 225.340744,301.073914 
M228.978500,328.606781 
	C227.266983,323.032166 223.202957,320.216248 219.432343,322.788483 
	C217.290985,324.249329 215.088211,327.938324 215.489166,330.158722 
	C215.893738,332.399109 219.254425,335.232422 221.729248,335.717377 
	C225.797897,336.514557 228.337204,333.568268 228.978500,328.606781 
M264.245941,334.067688 
	C263.402313,338.286011 265.031219,341.741394 269.047546,342.461456 
	C271.397644,342.882751 274.818329,341.431946 276.651337,339.671600 
	C279.360535,337.069763 278.106903,332.435730 274.889801,330.229279 
	C271.340302,327.794830 267.772949,328.872894 264.245941,334.067688 
M312.181732,298.977295 
	C312.141876,304.953156 315.394684,308.498077 320.156586,307.516724 
	C323.603821,306.806305 326.252899,304.495941 325.745850,301.089142 
	C325.376465,298.607239 323.424866,295.411743 321.281128,294.355011 
	C317.638367,292.559235 314.252411,294.292755 312.181732,298.977295 
M262.561890,314.884827 
	C264.973724,309.518616 263.337372,304.886963 258.601440,303.969025 
	C255.172028,303.304291 251.805725,304.244324 250.976639,307.695709 
	C250.389175,310.141235 250.917847,313.764099 252.453217,315.609100 
	C255.127548,318.822815 258.874146,318.304962 262.561890,314.884827 
M294.432709,319.112885 
	C292.005951,324.499939 293.626404,329.100281 298.385956,330.033142 
	C301.814514,330.705139 305.179413,329.764648 306.010803,326.312744 
	C306.599915,323.866791 306.080444,320.240692 304.546265,318.398712 
	C301.875916,315.192627 298.125763,315.694214 294.432709,319.112885 
z"/>
<path fill="#FDFDFD" opacity="1.000000" stroke="none" 
	d="
M349.228760,292.711853 
	C346.020050,288.505463 343.085632,283.906250 339.918854,279.473053 
	C316.526337,246.725739 283.878571,227.566544 246.143158,216.097153 
	C223.254547,209.140335 199.777145,205.528229 175.378235,205.080231 
	C174.685059,204.321091 173.985352,203.085434 174.295837,202.728470 
	C180.640396,195.434372 187.038452,188.183121 193.617905,181.101791 
	C194.417313,180.241409 196.317612,180.403870 198.491821,180.185074 
	C205.695312,181.185654 212.143005,181.928909 218.529343,183.028610 
	C253.800156,189.102036 286.989807,200.566650 316.730072,221.000763 
	C331.510559,231.156219 344.198608,243.534241 355.829956,257.079590 
	C356.204315,269.310669 353.743561,281.025208 349.228760,292.711853 
z"/>
<path fill="#40456D" opacity="1.000000" stroke="none" 
	d="
M355.878540,256.621582 
	C344.198608,243.534241 331.510559,231.156219 316.730072,221.000763 
	C286.989807,200.566650 253.800156,189.102036 218.529343,183.028610 
	C212.143005,181.928909 205.695312,181.185654 198.851135,180.137207 
	C212.100433,168.539215 228.104370,162.302307 245.570541,160.195679 
	C296.245514,154.083649 341.730865,185.859085 353.382019,235.419418 
	C354.966888,242.160995 355.114197,249.240524 355.878540,256.621582 
z"/>
<path fill="#F7F7F9" opacity="1.000000" stroke="none" 
	d="
M189.779816,237.946518 
	C184.901749,237.772385 181.726379,235.370865 182.289658,231.000336 
	C182.607178,228.536789 185.221725,225.451752 187.584930,224.389435 
	C190.934433,222.883759 193.954254,225.053513 195.458298,228.492813 
	C197.152740,232.367508 195.270355,235.609680 189.779816,237.946518 
z"/>
<path fill="#F7F7F9" opacity="1.000000" stroke="none" 
	d="
M277.250305,254.004089 
	C278.320770,259.410889 276.717346,262.672760 272.792542,263.773926 
	C269.281250,264.759064 265.139557,262.492828 264.269531,258.854614 
	C263.329865,254.925385 264.928558,251.957611 268.629700,250.501968 
	C272.207642,249.094788 275.042175,250.506119 277.250305,254.004089 
z"/>
<path fill="#F7F7F9" opacity="1.000000" stroke="none" 
	d="
M182.163971,286.450378 
	C184.004913,282.059235 186.922516,279.972900 191.288452,281.482330 
	C194.813110,282.700867 196.608246,285.576630 195.812805,289.284698 
	C194.989609,293.122070 192.274063,295.412842 188.264450,294.869476 
	C183.847809,294.270905 181.769852,291.338715 182.163971,286.450378 
z"/>
<path fill="#F7F7F9" opacity="1.000000" stroke="none" 
	d="
M224.992508,301.247681 
	C219.588776,302.325256 216.312210,300.718445 215.218979,296.799286 
	C214.237823,293.281921 216.495865,289.145020 220.134018,288.270477 
	C224.061523,287.326385 227.026016,288.921722 228.487900,292.624908 
	C229.903076,296.209778 228.477814,299.033051 224.992508,301.247681 
z"/>
<path fill="#F7F7F9" opacity="1.000000" stroke="none" 
	d="
M228.978516,328.996216 
	C228.337204,333.568268 225.797897,336.514557 221.729248,335.717377 
	C219.254425,335.232422 215.893738,332.399109 215.489166,330.158722 
	C215.088211,327.938324 217.290985,324.249329 219.432343,322.788483 
	C223.202957,320.216248 227.266983,323.032166 228.978516,328.996216 
z"/>
<path fill="#F7F7F9" opacity="1.000000" stroke="none" 
	d="
M264.406250,333.708374 
	C267.772949,328.872894 271.340302,327.794830 274.889801,330.229279 
	C278.106903,332.435730 279.360535,337.069763 276.651337,339.671600 
	C274.818329,341.431946 271.397644,342.882751 269.047546,342.461456 
	C265.031219,341.741394 263.402313,338.286011 264.406250,333.708374 
z"/>
<path fill="#F8F8FA" opacity="1.000000" stroke="none" 
	d="
M312.319885,298.607300 
	C314.252411,294.292755 317.638367,292.559235 321.281128,294.355011 
	C323.424866,295.411743 325.376465,298.607239 325.745850,301.089142 
	C326.252899,304.495941 323.603821,306.806305 320.156586,307.516724 
	C315.394684,308.498077 312.141876,304.953156 312.319885,298.607300 
z"/>
<path fill="#F8F8FA" opacity="1.000000" stroke="none" 
	d="
M262.303864,315.167786 
	C258.874146,318.304962 255.127548,318.822815 252.453217,315.609100 
	C250.917847,313.764099 250.389175,310.141235 250.976639,307.695709 
	C251.805725,304.244324 255.172028,303.304291 258.601440,303.969025 
	C263.337372,304.886963 264.973724,309.518616 262.303864,315.167786 
z"/>
<path fill="#F8F8FA" opacity="1.000000" stroke="none" 
	d="
M294.691711,318.830627 
	C298.125763,315.694214 301.875916,315.192627 304.546265,318.398712 
	C306.080444,320.240692 306.599915,323.866791 306.010803,326.312744 
	C305.179413,329.764648 301.814514,330.705139 298.385956,330.033142 
	C293.626404,329.100281 292.005951,324.499939 294.691711,318.830627 
z"/>
</svg>