<svg version="1.0" xmlns="http://www.w3.org/2000/svg"
 width="701.000000pt" height="700.000000pt" viewBox="0 0 701.000000 700.000000"
 preserveAspectRatio="xMidYMid meet">

<g transform="translate(0.000000,700.000000) scale(0.100000,-0.100000)"
fill="#000000" stroke="none">
<path d="M338 6911 c-113 -37 -209 -135 -242 -250 -14 -49 -16 -369 -16 -3152
0 -3004 1 -3099 19 -3158 24 -77 77 -149 143 -194 106 -72 -22 -67 1825 -67
l1663 0 0 1320 0 1320 -445 0 -445 0 0 525 0 525 444 0 445 0 4 503 c4 465 6
509 25 601 60 278 170 494 337 661 165 166 364 269 628 327 95 21 127 23 442
23 342 0 668 -18 693 -37 9 -8 12 -110 10 -467 l-3 -456 -350 -6 c-276 -5
-363 -10 -413 -23 -157 -40 -238 -121 -278 -277 -13 -52 -17 -136 -21 -456
l-5 -393 510 0 c281 0 513 -4 516 -8 3 -6 -92 -773 -126 -1017 -3 -20 -13 -20
-448 -25 l-445 -5 0 -1315 0 -1315 890 -3 c801 -3 896 -1 952 14 120 31 221
131 257 253 15 50 16 332 16 3151 0 3439 6 3150 -67 3258 -45 66 -117 119
-194 143 -59 18 -154 19 -3162 18 -2972 0 -3104 -1 -3159 -18z"/>
</g>
</svg>
