<svg version="1.0" xmlns="http://www.w3.org/2000/svg"
 width="512.000000pt" height="512.000000pt" viewBox="0 0 512.000000 512.000000"
 preserveAspectRatio="xMidYMid meet">

<g transform="translate(0.000000,512.000000) scale(0.100000,-0.100000)"
fill="#000000" stroke="none">
<path d="M1535 4907 c-287 -125 -565 -316 -790 -542 -390 -392 -635 -883 -722
-1445 -25 -163 -25 -558 0 -720 89 -568 334 -1056 725 -1448 255 -255 571
-459 908 -589 12 -4 14 322 14 2396 0 1321 -3 2401 -7 2401 -5 -1 -62 -24
-128 -53z"/>
<path d="M3450 2560 l0 -2401 23 7 c52 16 224 97 315 148 471 264 828 636
1061 1107 362 728 362 1550 0 2278 -233 470 -590 843 -1061 1107 -91 51 -263
132 -315 148 l-23 7 0 -2401z"/>
</g>
</svg>
