<svg version="1.1" id="Layer_1" xmlns="http://www.w3.org/2000/svg" xmlns:xlink="http://www.w3.org/1999/xlink" x="0px" y="0px"
	 width="100%" viewBox="0 0 592 592" enable-background="new 0 0 592 592" xml:space="preserve">
<path fill="#000000" opacity="1.000000" stroke="none" 
	d="
M137.531342,1.000000 
	C135.150818,3.836641 131.257080,2.606860 127.932610,3.280794 
	C104.221718,8.087448 82.488594,17.215080 63.185097,31.833847 
	C54.607594,38.329697 47.028755,45.926785 39.603058,53.745647 
	C27.589056,66.395752 19.253735,81.282799 12.101552,96.909042 
	C8.333589,105.141373 4.896718,113.748665 4.202135,122.791504 
	C3.936718,126.247009 2.740936,128.709457 1.216907,131.736847 
	C1.000000,88.404709 1.000000,44.809422 1.000000,1.000000 
	C46.354004,1.000000 91.708344,1.000000 137.531342,1.000000 
z"/>
<path fill="#000000" opacity="1.000000" stroke="none" 
	d="
M1.000000,471.468658 
	C4.662364,477.329498 4.666733,484.729095 7.003386,491.485138 
	C11.240461,503.735840 16.675549,515.287292 23.423330,526.369141 
	C30.983549,538.785156 40.214138,549.743469 50.793221,559.528137 
	C63.973804,571.718994 78.810196,581.557007 95.413742,588.584167 
	C98.459740,589.873413 101.518417,591.132690 104.785622,592.702881 
	C70.400558,593.000000 35.801121,593.000000 1.000000,593.000000 
	C1.000000,552.645996 1.000000,512.291687 1.000000,471.468658 
z"/>
<path fill="#000000" opacity="1.000000" stroke="none" 
	d="
M593.000000,102.531342 
	C588.154602,93.962776 584.400208,84.394730 578.977722,75.616402 
	C569.682068,60.567703 558.129639,47.692020 544.458618,36.482967 
	C536.507141,29.963470 528.267456,24.048286 519.177063,19.281538 
	C502.240326,10.400351 484.431976,4.272670 465.352478,2.113654 
	C465.042633,2.078593 464.756226,1.836721 464.229431,1.345679 
	C506.918427,1.000000 549.836853,1.000000 593.000000,1.000000 
	C593.000000,34.687164 593.000000,68.374924 593.000000,102.531342 
z"/>
<path fill="#000000" opacity="1.000000" stroke="none" 
	d="
M497.468658,593.000000 
	C506.023926,588.206421 515.688538,584.704163 524.467590,579.421875 
	C537.966919,571.299500 550.222595,561.508484 560.760986,549.877747 
	C574.262817,534.976318 584.936157,518.123413 592.675781,499.163361 
	C593.000000,530.261047 593.000000,561.522034 593.000000,593.000000 
	C561.312744,593.000000 529.625061,593.000000 497.468658,593.000000 
z"/>
<path fill="#000000" opacity="1.000000" stroke="none" 
	d="
M438.975189,544.368225 
	C430.610962,545.607422 422.702148,547.394470 414.484894,547.382568 
	C341.652405,547.277222 268.817841,547.591919 195.988113,547.124512 
	C170.272263,546.959534 146.446320,538.869690 124.922119,524.723328 
	C113.845673,517.443542 104.335541,508.325043 95.645103,498.244568 
	C79.168144,479.132050 70.016495,456.862671 65.657265,432.277863 
	C64.061378,423.277496 63.867695,414.157135 63.822872,405.163177 
	C63.495655,339.498718 63.629879,273.831970 63.653595,208.165924 
	C63.655460,203.000122 62.312790,197.626877 63.155418,192.791336 
	C64.180580,186.908295 63.986015,180.952332 65.324791,175.098740 
	C68.383560,161.724670 72.231056,148.655853 78.591736,136.475418 
	C87.824417,118.795242 100.065704,103.677505 116.002151,91.380585 
	C123.386536,85.682632 131.048370,80.594193 139.224457,76.337814 
	C149.085281,71.204361 159.793564,68.334015 170.545197,65.440887 
	C185.762726,61.346054 201.129120,62.781742 216.442154,62.740582 
	C282.107727,62.564053 347.774170,62.750565 413.440002,62.627983 
	C443.755096,62.571392 470.258972,73.091614 494.189819,90.945305 
	C505.128937,99.106483 514.498657,109.086426 522.146667,120.219299 
	C531.153992,133.330933 538.074402,147.619598 541.795959,163.417435 
	C543.610657,171.120834 544.863647,178.966110 547.057190,186.605484 
	C547.767822,189.080536 546.373108,192.086807 546.371460,194.850342 
	C546.328064,268.182953 546.169250,341.516296 546.463501,414.847717 
	C546.538391,433.520905 541.278015,450.600830 534.226501,467.464203 
	C526.838135,485.133392 515.322021,499.875153 501.366943,512.604858 
	C484.697449,527.810608 464.992004,537.758118 443.143860,543.419800 
	C441.873962,543.748962 440.595673,544.045776 438.975189,544.368225 
M168.558838,509.742828 
	C176.128342,511.561127 183.618576,513.740051 191.523254,513.735596 
	C259.186035,513.697632 326.848877,513.740601 394.511536,513.641235 
	C405.134644,513.625671 415.758728,514.144714 426.391968,512.771606 
	C437.017670,511.399414 447.223602,508.752045 456.835876,504.181427 
	C478.467926,493.895477 494.244751,477.569580 504.994568,456.286102 
	C506.397858,453.507690 507.861176,450.657074 508.605438,447.667786 
	C510.705688,439.231903 514.751221,431.089722 514.491455,422.296875 
	C514.201538,412.481415 514.513306,402.690887 514.511047,392.891541 
	C514.496338,329.729218 514.463318,266.566528 514.691895,203.404892 
	C514.739136,190.352585 513.681458,177.662476 509.601532,165.155228 
	C504.935303,150.850784 497.261292,138.256729 487.252228,127.448326 
	C479.933441,119.545105 470.897034,113.193146 461.203857,107.997467 
	C448.422150,101.146271 434.736145,96.603363 420.442657,96.535629 
	C344.787842,96.177162 269.130005,96.448044 193.473221,96.522789 
	C176.064972,96.539986 159.962814,101.603409 145.076996,110.227638 
	C129.407532,119.305885 117.246948,132.252136 108.069977,147.735107 
	C100.311821,160.824341 95.732971,175.394470 95.629501,190.513199 
	C95.167580,258.005310 95.336037,325.501831 95.327965,392.996765 
	C95.326988,401.205597 94.515007,409.343018 95.234383,417.644012 
	C96.470589,431.908661 99.457245,445.598236 106.074715,458.199127 
	C119.492432,483.748901 140.047577,501.058105 168.558838,509.742828 
z"/>
<path fill="#000000" opacity="1.000000" stroke="none" 
	d="
M295.735229,193.598907 
	C302.287415,192.057205 308.460968,192.680847 314.729553,193.103302 
	C322.881622,193.652695 330.738098,195.222580 338.610962,197.264877 
	C353.364807,201.092178 366.660675,207.905045 379.041718,216.545486 
	C391.894348,225.515060 402.798523,236.764587 411.323761,249.718491 
	C417.902161,259.714172 422.731781,270.931519 426.480591,282.509583 
	C428.837280,289.788086 429.982574,297.390778 431.398682,304.736938 
	C432.582794,310.879761 432.244415,317.881714 431.909607,324.541931 
	C431.102631,340.594208 427.183319,355.918427 420.705719,370.407959 
	C414.762115,383.702942 406.774445,395.804993 396.352081,406.354858 
	C385.378601,417.462524 373.180298,426.641266 359.110413,433.198151 
	C346.585815,439.034821 333.536346,442.969452 319.598389,444.521606 
	C300.676392,446.628723 282.541229,444.256348 264.873993,437.711029 
	C244.481857,430.156219 226.874344,418.652710 212.632858,401.826141 
	C203.663651,391.228912 196.072845,379.959106 190.826050,367.211823 
	C187.355789,358.780701 183.365707,350.148315 182.321136,341.286255 
	C181.671661,335.776184 180.810333,329.811188 181.477692,323.833099 
	C182.415176,315.435333 180.420898,306.598450 182.063873,298.428650 
	C183.256714,292.497192 184.730896,286.227234 187.279373,280.447723 
	C190.210876,273.799652 192.251755,266.715485 195.614029,260.311371 
	C200.120285,251.728226 206.059052,244.066589 212.284470,236.538345 
	C218.478851,229.047653 225.582260,222.777435 233.210587,217.028564 
	C247.384857,206.346512 263.382385,199.539215 280.669373,195.656860 
	C285.517914,194.567963 290.252228,192.787430 295.735229,193.598907 
M356.133942,240.435928 
	C355.209595,239.757767 354.344604,238.973648 353.351868,238.417587 
	C341.395630,231.720673 328.640961,227.999741 314.901855,226.940948 
	C300.027100,225.794647 285.507782,227.006470 271.722534,232.589050 
	C255.193436,239.282837 241.108414,249.239792 230.507080,264.158051 
	C220.765030,277.867126 214.374756,292.578705 213.413422,309.327393 
	C212.909042,318.114410 212.204178,326.857727 214.227112,335.810913 
	C217.211639,349.019867 221.185303,361.566010 229.333267,372.527405 
	C239.046310,385.594330 250.831436,395.965759 265.756409,403.057190 
	C275.951233,407.901062 286.564392,410.527832 297.501892,411.467407 
	C306.031219,412.200134 314.747925,412.112427 323.338806,410.667816 
	C339.918610,407.879730 354.842102,400.982697 367.392151,390.199951 
	C378.284973,380.841125 386.947021,369.366241 392.886780,355.845703 
	C397.731873,344.816925 399.354675,333.181641 400.044678,321.637268 
	C400.370789,316.181000 399.225067,309.930511 398.503845,304.104858 
	C396.353119,286.732025 388.920166,272.233948 378.055542,259.032074 
	C376.037903,256.580383 372.753387,255.347794 371.207916,252.875687 
	C367.614777,247.128143 362.180664,243.949722 356.133942,240.435928 
z"/>
<path fill="#000000" opacity="1.000000" stroke="none" 
	d="
M457.383301,181.948593 
	C455.875458,183.964188 454.683014,185.810364 453.107330,187.231720 
	C441.205627,197.967850 426.308319,194.610184 418.922607,179.808334 
	C414.484741,170.914322 419.857117,156.986557 428.831848,152.261490 
	C440.192719,146.280167 450.742767,151.502716 456.417419,160.162598 
	C460.918976,167.032257 460.192810,174.284637 457.383301,181.948593 
z"/>
</svg>