<svg version="1.0" xmlns="http://www.w3.org/2000/svg"
 width="134.000000pt" height="143.000000pt" viewBox="0 0 134.000000 143.000000"
 preserveAspectRatio="xMidYMid meet">

<g transform="translate(0.000000,143.000000) scale(0.100000,-0.100000)"
fill="#000000" stroke="none">
<path d="M440 1410 c-100 -14 -184 -53 -268 -125 -89 -77 -130 -172 -152 -351
-20 -164 14 -268 123 -376 102 -101 253 -158 416 -158 l38 0 7 -72 c10 -114
61 -190 168 -251 24 -14 59 -28 78 -31 28 -6 23 -2 -21 17 -96 40 -164 101
-194 174 -17 40 -20 153 -5 153 6 0 10 -21 10 -47 0 -45 0 -46 20 -28 11 10
17 21 15 25 -9 14 6 40 23 40 12 0 12 -4 -4 -21 -10 -12 -14 -20 -9 -17 6 2
32 14 59 27 27 13 67 26 89 29 l40 5 -24 18 c-29 22 -11 24 36 5 40 -17 41
-15 19 19 -27 42 -10 49 19 8 43 -62 38 -73 -35 -73 -35 -1 -80 -7 -101 -14
-45 -17 -117 -65 -117 -79 0 -6 30 -8 79 -5 61 4 92 11 137 34 32 16 62 30 66
32 4 2 5 -11 2 -30 -5 -28 -16 -67 -64 -220 -8 -26 -6 -28 27 -34 33 -6 172 2
181 10 2 2 -17 25 -42 50 -45 47 -86 133 -86 181 0 38 17 30 25 -12 11 -58 42
-116 85 -158 l40 -39 0 39 c0 56 -17 109 -50 164 -39 62 -32 86 27 100 59 15
168 69 190 94 18 20 17 20 -37 14 -69 -6 -167 -40 -196 -68 -31 -29 -55 -14
-78 51 -23 64 -14 76 15 19 l21 -43 33 97 c17 54 37 103 43 109 19 19 14 -11
-10 -62 -21 -45 -50 -150 -42 -150 3 0 15 7 27 15 34 22 136 55 171 55 54 0
61 13 29 51 -42 51 -76 73 -167 109 -24 9 -27 13 -15 21 10 6 7 9 -13 9 -15 0
-30 5 -33 10 -11 18 -20 10 -40 -38 -28 -69 -143 -180 -230 -223 -67 -33 -74
-34 -205 -37 -155 -4 -218 11 -318 74 -161 104 -225 235 -202 416 22 179 62
273 145 342 82 69 132 96 212 117 142 36 251 22 398 -50 51 -25 89 -41 84 -34
-5 6 -42 27 -82 47 -116 57 -247 81 -357 66z m789 -834 l24 -26 -24 0 c-13 0
-54 -11 -91 -23 -66 -23 -68 -23 -74 -4 -4 13 3 28 20 46 15 16 26 39 26 54
l0 27 48 -24 c26 -13 58 -36 71 -50z m-199 -10 c0 -16 -18 -31 -27 -22 -8 8 5
36 17 36 5 0 10 -6 10 -14z m190 -87 c-34 -23 -68 -38 -120 -53 l-55 -16 25
20 c29 23 116 59 145 59 17 1 18 -1 5 -10z m-250 -25 c0 -8 -4 -12 -10 -9 -5
3 -10 10 -10 16 0 5 5 9 10 9 6 0 10 -7 10 -16z m50 -56 c0 -30 -13 -58 -26
-58 -9 0 -14 12 -14 35 0 28 4 35 20 35 11 0 20 -6 20 -12z m-100 -43 c0 -14
-90 -47 -139 -52 -50 -5 -54 -4 -41 10 21 21 97 46 143 47 20 0 37 -2 37 -5z
m146 -81 c15 -25 30 -64 34 -86 l8 -39 -24 22 c-29 27 -64 101 -64 134 0 34
13 25 46 -31z m-32 -143 c14 -14 26 -28 26 -33 0 -4 -32 -8 -71 -8 -69 0 -70
1 -63 23 5 12 8 41 9 63 0 23 7 49 14 58 12 14 16 11 36 -31 12 -27 34 -59 49
-72z"/>
<path d="M418 1358 c-51 -11 -61 -23 -29 -33 29 -9 107 -119 154 -217 23 -48
45 -87 50 -88 4 0 7 11 7 25 0 15 6 38 14 53 7 15 21 56 30 92 9 35 28 84 41
107 l25 42 -37 11 c-53 16 -198 21 -255 8z m221 -43 c8 -4 5 -15 -9 -32 -17
-22 -20 -35 -14 -82 5 -48 3 -59 -14 -74 -19 -18 -21 -17 -51 37 -18 30 -52
77 -77 104 -37 43 -42 51 -27 56 24 7 178 0 192 -9z"/>
<path d="M284 1300 c-67 -38 -147 -116 -162 -157 -11 -32 -11 -33 36 -53 25
-11 54 -28 63 -36 9 -8 50 -28 92 -44 42 -16 99 -41 126 -55 l51 -25 -34 44
c-57 74 -104 206 -118 333 l-3 23 -51 -30z m45 -117 c6 -28 19 -74 30 -102
l19 -51 -54 0 c-50 0 -58 3 -93 39 -20 21 -44 40 -52 43 -21 7 31 80 83 118
48 35 50 33 67 -47z"/>
<path d="M716 1318 c-3 -7 -10 -31 -17 -53 -6 -22 -22 -60 -34 -85 -13 -25
-28 -71 -35 -102 -6 -32 -18 -64 -26 -72 -28 -28 -13 -26 24 3 67 54 170 91
300 106 l52 7 -22 40 c-29 51 -84 100 -145 131 -69 35 -92 41 -97 25z m179
-139 l27 -33 -78 -17 c-44 -9 -99 -25 -122 -34 -37 -15 -45 -16 -53 -4 -13 20
-11 45 4 61 36 38 57 74 57 99 l0 29 69 -34 c37 -19 81 -50 96 -67z"/>
<path d="M360 1301 c0 -5 7 -42 15 -82 18 -85 58 -178 100 -234 48 -63 39 -75
-56 -75 -119 0 -238 -47 -303 -118 -18 -21 -18 -21 9 -28 15 -4 66 -4 113 -2
87 5 164 32 244 84 28 19 50 12 30 -8 -7 -7 -12 -27 -12 -45 0 -19 -7 -50 -16
-71 -13 -31 -62 -188 -75 -242 -3 -13 16 -15 131 -15 74 0 147 3 162 8 l27 7
-49 46 c-61 57 -104 123 -130 199 -21 60 -26 115 -12 115 5 0 7 25 4 55 l-4
55 30 0 c20 0 32 -6 36 -17 9 -29 -8 -77 -31 -88 -17 -7 -21 -15 -17 -40 18
-106 68 -201 137 -260 47 -40 57 -34 50 29 -10 99 -43 189 -91 255 -20 27 -23
39 -16 59 7 20 21 28 74 42 123 31 280 116 280 151 0 16 -6 18 -47 13 -132
-16 -254 -60 -308 -110 -35 -32 -58 -19 -79 43 -23 70 -88 181 -136 236 -40
45 -60 58 -60 38z m108 -166 c36 -58 75 -155 64 -155 -12 0 -45 39 -69 81 -22
39 -63 143 -63 161 0 14 29 -23 68 -87z m442 -76 c-66 -45 -245 -117 -258
-104 -21 20 187 112 258 114 13 1 13 0 0 -10z m-455 -195 c-50 -40 -192 -84
-270 -84 -29 0 -1 26 61 56 67 33 103 42 174 43 52 0 54 -1 35 -15z m243 -177
c12 -32 22 -69 22 -84 0 -22 -2 -24 -16 -12 -31 26 -73 96 -96 162 -20 58 -21
69 -8 77 18 11 68 -60 98 -143z m-150 -27 c13 -27 44 -72 71 -99 26 -28 45
-54 42 -56 -2 -3 -49 -5 -104 -5 -91 0 -98 1 -91 18 5 9 9 47 10 85 1 49 6 72
19 87 10 11 21 20 24 20 3 -1 16 -23 29 -50z"/>
<path d="M930 1245 c19 -19 36 -35 39 -35 3 0 -10 16 -29 35 -19 19 -36 35
-39 35 -3 0 10 -16 29 -35z"/>
<path d="M90 1038 c-19 -88 -30 -193 -23 -231 l5 -35 29 33 c46 52 119 93 204
115 43 11 80 22 82 23 2 3 -242 130 -278 145 -4 2 -12 -21 -19 -50z m113 -28
c27 0 46 -9 72 -32 l36 -31 -55 -17 c-30 -10 -74 -32 -98 -49 l-43 -32 -3 55
c-2 30 2 74 8 97 11 38 12 40 29 25 10 -9 34 -16 54 -16z"/>
<path d="M956 1014 c-52 -36 -171 -90 -229 -105 -26 -6 -47 -14 -47 -18 0 -9
178 -91 198 -91 9 0 37 -9 61 -20 24 -11 45 -20 46 -20 2 0 8 23 14 50 13 58
15 230 3 230 -4 0 -25 -12 -46 -26z m17 -136 c-7 -38 -13 -52 -24 -50 -7 2
-37 5 -65 6 -38 2 -59 9 -87 31 l-36 29 57 21 c32 12 78 35 103 51 l44 30 8
-32 c5 -18 5 -57 0 -86z"/>
<path d="M699 798 c41 -73 61 -140 69 -225 l7 -72 64 52 c64 51 123 122 135
163 5 17 -3 24 -59 46 -60 23 -64 24 -48 6 10 -11 28 -24 41 -29 12 -5 22 -12
22 -16 0 -13 -99 -132 -119 -142 -16 -9 -19 -5 -24 42 -3 29 -14 79 -26 112
-12 32 -21 61 -21 62 0 2 19 3 43 4 41 1 40 1 -33 25 -41 13 -76 24 -78 24 -1
0 11 -24 27 -52z"/>
<path d="M1031 814 c0 -11 3 -14 6 -6 3 7 2 16 -1 19 -3 4 -6 -2 -5 -13z"/>
<path d="M415 785 c-38 -19 -100 -39 -137 -45 -71 -11 -174 -4 -196 13 -10 8
-11 5 -2 -17 37 -99 177 -226 279 -256 28 -8 29 -7 34 40 3 27 17 71 31 98 18
35 72 210 62 201 -1 0 -32 -16 -71 -34z m25 -86 c0 -14 -9 -34 -21 -45 -28
-26 -49 -67 -49 -99 l0 -26 -51 28 c-59 33 -121 83 -147 121 l-20 27 82 1 c49
1 102 9 136 21 59 20 70 16 70 -28z"/>
<path d="M1249 440 c-26 -15 -74 -38 -107 -50 l-61 -22 47 -24 c48 -24 164
-65 169 -60 2 1 7 30 11 64 9 62 5 123 -7 121 -3 0 -27 -13 -52 -29z m41 -34
c0 -13 -3 -37 -6 -53 -6 -29 -7 -29 -55 -23 -26 4 -58 15 -69 25 -21 19 -21
19 23 35 25 10 55 24 67 33 28 19 40 14 40 -17z"/>
<path d="M1094 303 c15 -22 33 -72 42 -114 8 -41 16 -78 17 -82 6 -22 137 118
137 147 0 5 -66 36 -77 36 -3 0 0 -7 7 -15 7 -8 19 -15 27 -15 19 0 -9 -49
-53 -91 l-32 -31 -7 49 c-4 26 -13 63 -20 80 -12 28 -12 34 2 41 13 8 11 10
-10 16 -14 3 -33 9 -42 12 -13 6 -11 -2 9 -33z"/>
<path d="M885 288 c-33 -18 -57 -22 -137 -22 -54 -1 -98 -2 -98 -4 0 -1 9 -20
19 -41 25 -48 81 -97 145 -127 l51 -24 6 33 c3 17 14 50 23 72 22 49 45 135
37 135 -3 -1 -24 -11 -46 -22z m1 -96 c-14 -21 -26 -46 -26 -55 0 -9 -6 -17
-13 -17 -20 0 -104 58 -128 88 l-21 27 74 6 c40 4 84 11 98 17 21 8 27 6 34
-9 7 -14 2 -29 -18 -57z"/>
<path d="M923 33 c9 -2 23 -2 30 0 6 3 -1 5 -18 5 -16 0 -22 -2 -12 -5z"/>
</g>
</svg>
