<svg version="1.0" xmlns="http://www.w3.org/2000/svg"
 width="180.000000pt" height="233.000000pt" viewBox="0 0 180.000000 233.000000"
 preserveAspectRatio="xMidYMid meet">

<g transform="translate(0.000000,233.000000) scale(0.100000,-0.100000)"
fill="#000000" stroke="none">
<path d="M35 2291 c52 -24 118 -89 146 -142 23 -46 38 -153 22 -162 -6 -4 -10
15 -10 48 0 47 -17 115 -30 115 -2 0 -14 -6 -26 -14 -12 -8 -33 -17 -47 -20
-14 -4 -3 5 23 19 l48 26 -20 28 c-18 25 -83 81 -94 81 -3 0 -7 -24 -9 -52 -2
-29 -11 -69 -20 -88 -9 -20 -16 -64 -16 -102 l-1 -68 78 0 c141 0 218 -36 329
-154 70 -75 95 -119 117 -203 30 -115 13 -231 -45 -312 -36 -50 -141 -129
-227 -172 -59 -30 -67 -31 -158 -27 l-95 4 0 -41 c0 -41 0 -41 54 -58 29 -10
74 -28 100 -42 25 -13 46 -22 46 -19 0 2 -7 21 -15 41 -23 54 -17 64 9 14 l23
-45 17 57 c9 32 29 70 44 85 15 16 22 21 16 13 -23 -32 -44 -80 -54 -127 -6
-27 -16 -52 -22 -55 -6 -4 -34 5 -62 21 -28 16 -75 35 -104 44 l-53 15 3 -31
c3 -26 11 -35 59 -60 31 -16 75 -32 98 -35 49 -7 49 -2 7 -118 -14 -38 -26
-92 -26 -119 0 -49 0 -49 20 -31 28 25 78 131 86 183 4 23 11 45 16 48 5 3 25
-11 45 -31 49 -51 130 -87 184 -83 l42 3 -41 42 c-44 45 -115 86 -170 98 l-33
7 24 18 c13 10 65 40 115 66 51 26 92 51 92 56 0 13 -72 89 -113 119 -21 15
-34 30 -29 32 13 9 108 -69 144 -120 63 -86 84 -199 57 -298 -14 -52 -103
-139 -188 -184 -60 -32 -67 -33 -145 -29 -92 5 -148 28 -208 86 l-38 36 0 -28
c0 -15 4 -25 9 -21 5 3 12 1 16 -5 3 -6 -1 -13 -9 -16 -10 -4 -16 -19 -16 -41
0 -19 4 -32 9 -29 5 3 12 -11 16 -32 4 -20 18 -59 31 -86 l25 -49 -41 6 c-38
5 -40 4 -40 -21 0 -14 8 -34 17 -45 17 -18 17 -19 0 -28 -13 -8 -25 -39 -14
-39 1 0 35 11 76 24 l73 23 -71 33 c-39 18 -69 35 -67 37 2 3 35 -7 74 -20
l69 -24 -27 41 c-37 55 -72 160 -68 205 l4 36 8 -40 c18 -90 38 -146 70 -194
41 -60 38 -87 -8 -97 -17 -3 -55 -15 -83 -26 l-53 -19 0 -49 0 -49 57 20 c63
21 133 63 133 79 0 6 8 5 20 -2 11 -7 20 -18 20 -24 0 -7 18 -48 41 -93 l40
-81 45 0 c42 0 45 2 39 23 -12 41 -54 128 -77 160 -42 58 -36 64 66 69 79 3
99 8 152 37 34 18 74 45 89 61 l26 28 -54 6 c-89 11 -210 -20 -289 -76 -16
-11 -29 -15 -33 -8 -3 5 -1 10 4 10 6 0 11 17 11 38 1 20 10 53 20 72 l20 35
-6 -30 c-3 -16 -10 -43 -15 -59 -5 -16 -7 -31 -5 -33 2 -2 19 5 37 16 55 31
137 51 215 51 117 0 128 -13 67 -72 -47 -46 -135 -87 -203 -95 l-52 -6 66 -35
c37 -19 64 -37 62 -39 -3 -3 -42 12 -88 32 -46 20 -89 39 -97 42 -7 3 3 -15
22 -40 30 -39 50 -82 82 -174 6 -18 45 -16 45 1 0 8 -14 40 -30 71 l-30 58 47
-7 c32 -4 54 -13 67 -28 10 -13 29 -28 43 -33 l26 -10 -28 -33 -27 -32 36 0
c31 0 38 5 55 38 l19 38 -41 17 c-23 10 -53 26 -67 37 l-25 20 35 -12 c19 -6
47 -20 62 -30 16 -11 32 -17 37 -14 14 9 35 136 35 216 0 58 -5 85 -22 118
-28 54 -83 115 -128 143 -19 11 -34 25 -34 30 0 42 138 -79 177 -155 50 -99
38 -269 -32 -428 -5 -13 -3 -18 8 -18 8 0 21 16 29 35 14 35 14 36 32 16 17
-19 17 -20 -11 -35 -39 -21 -6 -21 63 1 l53 16 -57 28 c-39 19 -47 26 -27 22
17 -3 38 -10 47 -14 34 -18 35 -8 6 47 -22 39 -32 75 -36 120 -3 38 -9 61 -15
57 -5 -3 -8 0 -5 7 8 24 81 41 177 41 85 0 100 -3 156 -30 116 -57 188 -167
168 -254 l-11 -42 -1 53 -1 54 -25 -30 c-30 -36 -95 -69 -156 -81 l-44 -9 56
-1 c47 -1 63 4 96 28 l39 28 -4 -28 c-4 -26 -2 -29 26 -29 27 0 31 4 41 46 12
48 75 125 120 149 15 7 49 16 78 20 139 18 269 -61 292 -177 7 -35 9 -38 10
-14 1 42 -34 110 -72 139 -61 46 -100 60 -173 63 -92 4 -132 -9 -196 -64 l-52
-44 -19 43 c-21 50 -74 110 -131 146 -47 30 -143 63 -165 56 -9 -2 -4 5 12 17
36 29 34 37 -13 45 -22 4 -60 17 -85 30 l-44 24 9 -24 c5 -13 6 -40 3 -59 -5
-30 -11 -38 -37 -45 -17 -4 -32 -7 -34 -6 -1 1 4 15 13 31 8 16 15 35 15 42 0
15 12 16 28 0 17 -17 15 0 -8 57 -16 42 -19 46 -20 22 0 -28 -39 -131 -47
-124 -2 2 6 24 17 48 11 24 20 56 20 70 0 41 10 41 55 0 40 -37 136 -73 152
-57 17 17 -92 97 -152 111 l-29 6 32 21 c18 11 35 18 38 15 3 -3 -7 -12 -23
-21 -20 -11 -23 -15 -10 -16 31 0 92 -37 129 -78 42 -47 48 -41 48 47 0 50
-15 121 -25 121 -2 0 -20 -10 -40 -21 -20 -12 -38 -19 -41 -16 -3 3 13 16 37
28 l43 22 -59 55 -60 56 -6 -60 c-5 -57 -28 -116 -49 -129 -6 -3 1 15 15 41
17 32 25 63 25 96 0 43 -3 50 -26 58 -55 21 -152 4 -140 -25 15 -38 16 -48 1
-22 -8 15 -18 27 -22 27 -3 0 -21 -11 -39 -25 -20 -15 -31 -20 -28 -11 13 33
88 70 151 74 80 5 126 -11 186 -67 69 -65 91 -110 91 -197 1 -62 -3 -76 -28
-115 -18 -27 -22 -38 -11 -29 28 23 55 90 55 141 0 100 -69 210 -162 257 -61
30 -167 31 -221 2 -20 -11 -38 -20 -39 -20 -2 0 -3 37 -4 83 0 115 -37 192
-134 278 l-69 62 53 52 c71 70 98 129 104 225 9 151 -36 266 -148 378 -42 42
-96 83 -133 103 l-64 33 5 41 c7 65 -22 149 -70 201 -44 47 -88 78 -128 88
-14 3 -7 -2 15 -13z m68 -99 c16 -14 15 -17 -15 -43 -49 -42 -57 -37 -39 20
15 50 20 52 54 23z m57 -141 l0 -44 -23 21 c-13 12 -37 27 -55 33 -26 9 -30
14 -21 25 6 8 24 14 40 14 15 0 31 5 35 11 11 19 24 -12 24 -60z m-114 44
c-11 -8 -25 -15 -30 -15 -6 1 0 7 14 15 32 19 40 18 16 0z m48 -66 c26 -17 45
-34 42 -36 -3 -3 -20 6 -38 20 -18 13 -46 29 -63 35 -23 8 -25 11 -9 11 11 1
42 -13 68 -30z m272 -963 c-6 -57 -53 -157 -76 -164 -12 -4 -12 -1 2 14 35 40
58 108 58 174 1 52 3 61 12 46 6 -11 8 -40 4 -70z m88 -20 l29 -24 -29 -15
c-16 -8 -38 -24 -48 -36 -11 -12 -25 -21 -33 -21 -16 0 -16 -2 2 50 8 23 15
53 15 67 0 27 11 23 64 -21z m-228 22 c-15 -49 -16 -50 -31 -38 -25 20 -15 36
32 49 1 1 1 -5 -1 -11z m-88 -45 l3 -32 -61 20 c-51 18 -59 23 -49 36 8 9 27
13 58 11 44 -3 46 -5 49 -35z m674 -285 c-24 -26 -61 -105 -62 -130 0 -29 -16
-29 -82 2 -34 16 -70 30 -78 30 -8 0 -22 5 -30 10 -26 18 39 0 99 -26 65 -29
64 -29 55 -2 -3 12 -8 46 -9 75 l-2 53 40 0 c38 0 39 -1 24 -17 -8 -10 -19
-31 -22 -46 -5 -18 -12 -26 -21 -23 -17 7 -17 -2 0 -33 l13 -24 12 35 c14 43
62 118 75 118 5 0 0 -10 -12 -22z m-132 -79 c0 -15 -4 -19 -16 -15 -9 3 -27 9
-40 12 -29 8 -30 12 -3 40 20 22 21 22 40 3 10 -10 19 -28 19 -40z m233 23
c20 -17 22 -32 5 -32 -6 0 -22 -10 -35 -22 -31 -29 -36 -20 -21 35 12 46 17
48 51 19z m-261 -120 c18 -6 42 -13 53 -15 18 -4 18 -5 -2 -6 -12 0 -34 4 -50
9 -34 13 -123 72 -123 82 0 5 20 -7 45 -26 24 -19 59 -39 77 -44z m318 -19 l0
-42 -36 24 c-19 13 -44 27 -55 30 -15 5 -17 10 -10 19 6 7 7 16 3 21 -4 4 3 2
16 -4 19 -10 28 -10 45 2 28 19 37 7 37 -50z m-507 6 c25 -13 97 -80 97 -90 0
-4 -24 -10 -53 -13 -29 -4 -76 -18 -105 -31 l-52 -24 0 30 c0 21 10 40 30 61
17 16 30 37 30 47 0 32 17 38 53 20z m256 -26 c-1 -17 -28 -77 -28 -66 -1 6 3
23 9 37 9 25 -2 37 -15 16 -3 -5 -12 -10 -18 -10 -16 1 23 30 40 30 7 0 13 -3
12 -7z m-359 -10 c-1 -13 -29 -59 -30 -48 0 21 13 55 21 55 5 0 9 -3 9 -7z
m-133 -53 c21 -42 44 -153 29 -139 -3 3 -13 33 -22 65 -8 32 -24 74 -35 92
-12 22 -15 32 -7 30 7 -2 23 -24 35 -48z m73 21 c0 -16 -6 -34 -13 -40 -11 -8
-17 -3 -30 25 -22 45 -22 44 13 44 26 0 30 -3 30 -29z m602 -67 l28 -6 -24
-19 c-31 -24 -41 -24 -60 3 -18 25 -12 41 12 34 10 -3 29 -8 44 -12z m-275
-141 c-3 -10 -8 -39 -12 -64 l-6 -45 -46 2 c-30 2 -53 10 -66 23 -20 19 -20
20 14 34 19 8 50 27 69 41 42 30 53 32 47 9z m116 -149 c14 -14 7 -24 -19 -24
-24 0 -26 3 -20 31 3 17 6 39 7 48 0 9 6 2 12 -16 7 -17 15 -35 20 -39z"/>
<path d="M2 2201 c-1 -72 -1 -75 13 -46 18 38 19 111 2 118 -10 4 -13 -14 -15
-72z"/>
<path d="M0 1916 c0 -25 2 -26 55 -26 30 0 55 -3 55 -6 0 -3 -8 -18 -18 -32
-17 -24 -29 -51 -46 -106 -6 -18 -7 -18 -26 -1 -28 25 -25 5 7 -58 l26 -52 12
50 c16 71 49 135 97 190 22 25 38 49 35 52 -4 3 -49 8 -102 11 l-95 5 0 -27z"/>
<path d="M167 1854 c-49 -61 -82 -134 -93 -204 -8 -46 -36 -69 -60 -49 -12 10
-14 6 -14 -25 0 -20 4 -36 9 -36 18 0 21 -32 6 -61 -12 -22 -15 -56 -13 -142
l3 -112 33 65 c18 36 38 93 45 127 18 89 27 94 76 40 58 -63 148 -108 227
-115 35 -2 64 -1 64 3 0 18 -65 86 -113 117 -56 37 -87 51 -154 68 -24 6 -43
15 -43 21 0 6 5 7 11 4 6 -4 20 2 32 12 12 11 54 36 92 55 109 55 175 92 175
99 0 24 -180 189 -206 189 -4 0 -4 -20 -1 -45 12 -81 -18 -187 -75 -268 -33
-47 -33 -21 0 30 50 77 76 209 53 267 -7 17 -14 12 -54 -40z m188 -87 l39 -34
-36 -17 c-20 -10 -48 -30 -62 -47 -14 -16 -35 -29 -45 -29 -19 0 -19 1 -1 48
10 26 21 66 25 89 8 49 13 48 80 -10z"/>
<path d="M428 1679 c-15 -11 -53 -30 -85 -43 -32 -12 -82 -36 -110 -53 -51
-29 -58 -43 -23 -43 10 0 49 -16 88 -35 77 -39 172 -131 172 -167 0 -19 -4
-20 -68 -16 -78 6 -159 38 -213 86 l-36 31 17 -52 c10 -29 20 -65 24 -82 6
-27 5 -28 -6 -10 -7 11 -27 58 -45 105 -18 47 -32 75 -33 63 0 -40 -47 -170
-79 -222 -18 -31 -31 -65 -31 -85 0 -31 3 -34 37 -40 77 -12 142 -6 195 18 94
42 220 146 255 211 21 39 31 136 22 205 -10 65 -36 150 -48 150 -3 0 -18 -10
-33 -21z m22 -87 c5 -20 10 -64 10 -97 l0 -59 -37 36 c-21 21 -64 49 -95 63
-32 15 -58 30 -58 34 0 16 26 31 56 31 38 0 94 19 94 32 0 21 20 -5 30 -40z
m-300 -284 c13 -18 25 -48 26 -67 1 -20 4 -45 6 -56 4 -23 -30 -31 -97 -21
l-41 7 33 66 c18 36 33 74 33 84 0 28 13 23 40 -13z m155 6 c27 -8 58 -14 69
-14 14 0 4 -12 -34 -40 -29 -22 -55 -40 -57 -40 -1 0 -16 14 -33 31 -35 37
-44 97 -12 84 9 -4 39 -14 67 -21z m-66 -149 c0 -27 -3 -24 -19 20 -25 67 -24
103 1 50 10 -22 18 -53 18 -70z"/>
<path d="M0 1659 c0 -15 7 -32 15 -39 19 -16 19 -11 0 31 -14 33 -14 33 -15 8z"/>
<path d="M0 1509 c0 -5 5 -7 10 -4 5 3 10 8 10 11 0 2 -4 4 -10 4 -5 0 -10 -5
-10 -11z"/>
<path d="M427 941 l-108 -55 68 -31 c77 -37 160 -114 149 -140 -12 -32 -161 8
-213 57 -27 25 -28 23 -8 -32 8 -23 15 -48 15 -54 -1 -18 -26 34 -46 94 l-18
54 -11 -54 c-12 -64 -47 -139 -82 -181 -14 -16 -23 -32 -21 -34 11 -11 124
-26 152 -21 54 11 57 16 41 71 -17 55 -14 72 5 23 6 -18 15 -41 19 -52 6 -16
13 -14 71 26 36 24 79 64 95 87 28 41 30 48 30 139 -1 64 -6 107 -15 128 l-15
30 -108 -55z m101 -78 l5 -67 -36 31 c-20 17 -52 37 -72 44 -49 18 -43 42 13
50 23 3 48 11 54 17 20 20 32 -4 36 -75z m-218 -219 c0 -16 5 -35 11 -41 16
-16 -23 -26 -70 -18 l-38 6 22 43 c12 24 25 54 29 67 l6 24 20 -25 c11 -14 20
-39 20 -56z m145 45 c17 -4 15 -8 -18 -33 l-38 -29 -24 23 c-14 13 -25 34 -25
46 0 21 1 22 43 9 23 -7 51 -14 62 -16z"/>
<path d="M2 903 c2 -11 25 -26 55 -39 40 -16 50 -23 41 -32 -7 -7 -24 -12 -39
-12 -40 0 -59 -10 -59 -31 0 -23 -1 -23 45 -3 54 22 55 9 1 -18 -41 -19 -46
-26 -46 -55 0 -39 40 -88 100 -122 38 -21 40 -21 29 -3 -18 29 4 131 55 253 6
13 -1 17 -32 22 -22 2 -63 17 -92 31 -61 31 -62 31 -58 9z m169 -67 c-7 -8
-26 -19 -44 -25 -36 -13 -26 0 18 23 37 20 41 20 26 2z m-48 -83 c-3 -16 -11
-47 -17 -71 l-11 -42 -38 31 c-43 35 -46 46 -14 58 12 5 31 18 41 30 28 31 48
28 39 -6z"/>
<path d="M825 324 c-11 -3 -30 -7 -42 -9 -21 -5 -19 -8 21 -45 43 -40 78 -105
89 -167 4 -19 2 -33 -3 -33 -6 0 -10 12 -10 28 -1 40 -36 112 -78 155 -20 20
-40 37 -44 37 -25 0 9 -142 48 -199 34 -50 31 -66 -13 -78 -34 -9 -28 -11 57
-12 65 0 90 2 80 9 -11 7 1 10 41 10 71 0 134 22 184 63 l39 32 -39 5 c-56 7
-126 -5 -182 -31 -66 -31 -71 -33 -48 -14 47 40 109 58 193 59 45 1 82 2 82 4
0 34 -100 134 -163 162 l-42 19 -7 -39 c-7 -38 -37 -106 -38 -84 0 6 7 34 16
63 8 29 13 55 10 58 -7 7 -127 13 -151 7z m104 -69 c-6 -19 -7 -40 -4 -45 3
-5 1 -19 -6 -31 -10 -20 -13 -17 -45 40 -19 34 -34 64 -34 66 0 3 22 5 49 5
l49 0 -9 -35z m180 -56 l22 -29 -35 0 c-20 0 -58 -9 -86 -20 l-50 -20 0 23 c0
13 11 34 25 47 14 13 25 34 25 47 l0 24 39 -22 c22 -12 49 -35 60 -50z m-173
-70 c-9 -27 -14 -36 -15 -22 -1 22 19 76 26 70 1 -2 -3 -23 -11 -48z"/>
<path d="M1396 191 c-3 -4 6 -19 21 -32 31 -29 63 -95 62 -129 0 -16 -5 -8
-13 22 -14 53 -57 114 -86 123 -23 7 -72 -29 -102 -74 -24 -35 -23 -40 13 -53
16 -6 28 -12 26 -14 -2 -3 -17 0 -32 6 -31 12 -30 12 -39 -15 -5 -19 -1 -20
59 -21 42 0 61 3 53 9 -9 6 -4 7 12 3 73 -18 109 -18 137 1 41 29 89 43 149
43 31 0 54 4 54 10 0 23 -98 109 -136 119 -46 13 -171 15 -178 2z m139 -68
c-16 -28 -16 -25 2 42 6 26 8 27 11 8 2 -12 -4 -34 -13 -50z m-26 30 c-5 -14
-8 -32 -5 -38 2 -7 1 -17 -3 -24 -6 -8 -17 2 -34 31 -27 47 -23 58 25 58 26 0
27 -2 17 -27z m131 -38 c16 -19 15 -19 -35 -32 -22 -6 -48 -14 -57 -18 -24
-10 -23 10 2 42 11 14 20 32 20 40 0 11 4 11 28 -1 16 -8 34 -22 42 -31z
m-230 -80 c7 -8 10 -18 7 -22 -10 -9 -47 78 -46 107 0 16 5 8 13 -22 7 -26 19
-54 26 -63z m-60 58 c6 -16 14 -35 19 -44 8 -13 5 -18 -14 -21 -14 -3 -22 -2
-20 3 3 4 -6 16 -20 26 -24 17 -24 19 -10 41 21 29 33 28 45 -5z m161 -44 c-5
-13 -10 -19 -10 -12 -1 15 10 45 15 40 3 -2 0 -15 -5 -28z"/>
<path d="M190 175 c-17 -21 -91 -59 -147 -75 -31 -9 -43 -19 -43 -32 0 -10 6
-18 14 -18 11 0 83 29 117 47 4 2 9 -5 12 -16 3 -13 -4 -28 -19 -42 -30 -28
-30 -39 -1 -39 15 0 29 9 36 22 l12 23 -5 -23 c-3 -16 1 -22 14 -22 13 0 20 9
22 27 4 37 20 38 40 3 9 -17 24 -30 33 -30 9 0 15 3 13 8 -9 17 -65 139 -74
161 -9 21 -11 22 -24 6z m0 -81 l-21 -49 6 39 c8 52 27 96 32 75 2 -9 -5 -38
-17 -65z"/>
<path d="M1545 26 l-50 -25 113 1 112 0 0 26 0 26 -16 -22 c-8 -12 -20 -22
-26 -22 -6 0 -3 9 7 20 18 20 17 20 -36 20 -36 0 -70 -8 -104 -24z"/>
</g>
</svg>
