<svg version="1.0" xmlns="http://www.w3.org/2000/svg"
 width="134.000000pt" height="143.000000pt" viewBox="0 0 134.000000 143.000000"
 preserveAspectRatio="xMidYMid meet">

<g transform="translate(0.000000,143.000000) scale(0.100000,-0.100000)"
fill="#000000" stroke="none">
<path d="M923 1393 c9 -2 23 -2 30 0 6 3 -1 5 -18 5 -16 0 -22 -2 -12 -5z"/>
<path d="M820 1376 c-50 -17 -125 -71 -154 -109 -37 -48 -54 -96 -62 -171 l-7
-66 -38 0 c-163 0 -314 -57 -416 -158 -109 -108 -142 -208 -123 -374 22 -190
67 -285 172 -368 171 -136 387 -151 605 -44 40 20 77 41 82 47 5 7 -33 -9 -84
-34 -147 -72 -256 -86 -398 -50 -80 21 -130 48 -212 117 -83 69 -123 163 -145
342 -23 181 41 312 202 416 100 63 163 78 318 74 131 -3 138 -4 205 -37 87
-43 202 -154 230 -223 20 -48 29 -56 40 -38 3 6 18 10 33 10 20 0 23 3 13 9
-12 8 -9 12 15 21 91 36 125 58 167 109 32 38 25 51 -29 51 -35 0 -137 33
-171 55 -12 8 -24 15 -27 15 -8 0 21 -105 42 -150 24 -51 29 -81 10 -62 -6 6
-26 55 -43 109 l-33 97 -21 -43 c-29 -57 -38 -45 -15 19 23 65 47 80 78 51 29
-28 127 -62 196 -68 54 -6 55 -6 37 14 -22 25 -131 79 -190 94 -59 14 -66 38
-27 100 33 55 50 108 50 164 l0 39 -40 -39 c-43 -42 -74 -100 -85 -158 -8 -42
-25 -50 -25 -12 0 48 41 134 86 181 25 25 44 48 42 50 -9 8 -148 16 -181 10
l-35 -6 23 -78 c13 -42 28 -90 33 -107 15 -44 23 -97 14 -93 -4 2 -34 16 -66
32 -45 23 -76 30 -137 34 -49 3 -79 1 -79 -5 0 -14 72 -62 117 -79 21 -7 66
-13 101 -14 73 0 78 -11 35 -73 -29 -41 -46 -34 -19 8 22 34 21 36 -19 19 -47
-19 -65 -17 -36 5 l24 18 -40 5 c-22 3 -62 16 -89 29 -27 13 -53 25 -59 27 -5
3 -1 -5 9 -17 16 -17 16 -21 4 -21 -17 0 -32 26 -23 40 2 4 -4 15 -15 25 -20
18 -20 17 -20 -28 0 -26 -4 -47 -10 -47 -15 0 -12 113 5 153 30 73 99 134 194
173 59 25 52 32 -9 10z m240 -44 c0 -5 -12 -19 -26 -33 -15 -13 -37 -45 -49
-72 -20 -42 -24 -45 -36 -31 -7 9 -14 35 -14 58 -1 22 -4 51 -9 64 -7 21 -6
22 63 22 39 0 71 -4 71 -8z m40 -91 c-7 -39 -51 -124 -70 -136 -15 -9 -12 38
5 78 12 29 61 97 70 97 1 0 -1 -18 -5 -39z m-219 -143 l44 -23 -33 -3 c-40 -4
-137 25 -154 46 -12 13 -6 15 43 9 31 -3 76 -16 100 -29z m133 -30 c10 -38 7
-48 -14 -48 -16 0 -20 7 -20 35 0 40 24 49 34 13z m180 -101 c22 -13 32 -23
24 -25 -21 -4 -118 34 -148 58 l-25 20 55 -16 c30 -9 72 -26 94 -37z m-228 -4
c-10 -10 -19 5 -10 18 6 11 8 11 12 0 2 -7 1 -15 -2 -18z m263 -83 l24 0 -24
-26 c-13 -14 -45 -37 -71 -50 l-48 -24 0 27 c0 15 -11 38 -26 54 -17 18 -24
33 -20 46 6 19 8 19 74 -4 37 -12 78 -23 91 -23z m-201 -14 c3 -12 -1 -17 -10
-14 -7 3 -15 13 -16 22 -3 12 1 17 10 14 7 -3 15 -13 16 -22z"/>
<path d="M814 1336 c-64 -30 -120 -79 -145 -127 -10 -21 -19 -40 -19 -41 0 -2
44 -3 98 -4 80 0 104 -4 139 -22 23 -12 44 -22 46 -22 7 0 -20 92 -39 135 -9
22 -20 55 -23 72 l-6 33 -51 -24z m46 -43 c0 -9 12 -34 26 -54 34 -49 27 -84
-14 -67 -15 5 -60 13 -100 17 l-74 6 21 27 c24 30 108 88 128 88 7 0 13 -8 13
-17z"/>
<path d="M1137 1249 c-10 -50 -26 -97 -43 -122 -20 -31 -22 -39 -9 -33 9 3 28
9 42 12 21 6 23 8 10 16 -14 7 -14 13 -2 41 7 17 16 54 20 80 l7 49 32 -31
c44 -42 72 -91 53 -91 -8 0 -20 -7 -27 -15 -7 -8 -10 -15 -7 -15 13 0 77 31
77 38 0 20 -68 101 -111 133 l-26 18 -16 -80z"/>
<path d="M1225 1126 c-33 -12 -79 -31 -103 -42 l-43 -21 62 -23 c34 -12 84
-35 111 -51 28 -17 53 -28 55 -25 14 14 -1 187 -15 185 -4 -1 -34 -11 -67 -23z
m64 -92 c1 -17 -2 -33 -5 -36 -3 -4 -30 7 -61 23 -30 16 -62 29 -71 29 -13 0
-12 4 6 22 14 14 39 24 69 28 53 6 60 -2 62 -66z"/>
<path d="M409 964 c-2 -12 -2 -12 31 -124 16 -52 35 -112 44 -132 9 -21 16
-52 16 -71 0 -18 5 -38 12 -45 20 -20 -2 -27 -30 -8 -80 52 -157 79 -244 84
-47 2 -98 2 -113 -2 -27 -7 -27 -7 -9 -28 65 -71 184 -118 303 -118 95 0 104
-12 56 -75 -16 -22 -42 -68 -57 -101 -30 -66 -64 -211 -53 -222 22 -21 156
176 191 281 21 62 44 75 79 43 54 -50 176 -94 308 -110 41 -5 47 -3 47 13 0
35 -157 120 -280 151 -53 14 -67 22 -74 42 -7 20 -4 32 16 59 48 66 81 156 91
255 7 63 -3 69 -50 29 -69 -59 -119 -154 -137 -260 -4 -25 0 -33 17 -40 23
-11 40 -59 31 -87 -4 -12 -16 -18 -36 -18 l-30 0 4 55 c3 30 1 55 -4 55 -14 0
-9 55 12 115 26 76 69 142 129 198 40 37 46 47 32 53 -24 11 -301 18 -302 8z
m252 -39 c3 -2 -16 -27 -41 -54 -26 -27 -57 -71 -71 -98 -13 -26 -25 -50 -27
-52 -1 -3 -12 5 -24 16 -17 17 -21 35 -22 90 -1 37 -5 76 -10 86 -7 16 0 17
91 17 55 0 102 -2 104 -5z m38 -179 c-30 -83 -80 -157 -99 -146 -11 7 -12 15
-1 52 20 65 48 119 84 163 30 37 32 38 35 16 2 -13 -6 -51 -19 -85z m-430
-107 c69 -12 152 -45 186 -74 19 -15 16 -16 -57 -11 -58 3 -92 12 -141 35 -71
34 -103 61 -72 61 10 0 48 -5 84 -11z m442 -175 c50 -15 165 -69 199 -94 19
-14 -31 -6 -105 17 -53 16 -155 72 -155 85 0 10 -2 11 61 -8z m-192 -66 c-30
-76 -119 -218 -119 -190 0 37 66 178 103 220 33 36 38 26 16 -30z"/>
<path d="M358 949 c-99 -26 -241 -157 -278 -255 -9 -22 -8 -25 2 -17 22 17
125 24 196 13 37 -6 99 -26 137 -44 l71 -33 -19 75 c-10 41 -29 97 -43 123
-13 27 -27 70 -32 97 -7 47 -8 48 -34 41z m29 -134 c6 -11 21 -29 32 -39 20
-19 27 -50 16 -78 -5 -12 -15 -11 -63 5 -36 12 -87 20 -138 21 l-82 1 18 25
c29 40 71 76 135 114 l60 36 6 -33 c3 -17 10 -41 16 -52z"/>
<path d="M770 887 c0 -73 -21 -155 -60 -233 -21 -41 -37 -74 -36 -74 0 0 35
11 76 24 73 24 74 24 33 25 -24 1 -43 2 -43 4 0 1 9 30 21 62 12 33 23 83 26
112 5 47 8 51 24 42 20 -10 119 -129 119 -142 0 -4 -10 -11 -22 -16 -13 -5
-31 -18 -41 -29 -17 -19 -14 -18 45 5 35 14 65 27 66 28 7 6 -29 72 -59 108
-17 20 -57 57 -90 83 l-59 45 0 -44z"/>
<path d="M935 649 c-22 -10 -48 -19 -57 -19 -20 0 -198 -82 -198 -91 0 -4 21
-12 46 -18 58 -15 164 -63 225 -101 25 -17 49 -30 52 -30 4 0 7 40 7 90 0 88
-15 191 -28 189 -4 0 -25 -9 -47 -20z m39 -99 c4 -28 4 -66 0 -84 l-6 -34 -46
31 c-25 17 -72 40 -103 52 l-58 21 36 29 c29 23 48 29 91 31 29 1 56 5 59 8
12 12 21 -5 27 -54z"/>
<path d="M67 623 c-10 -57 25 -288 42 -281 36 15 280 142 278 145 -2 1 -39 12
-82 23 -85 22 -158 63 -204 115 l-29 33 -5 -35z m100 -81 c18 -13 58 -32 88
-41 l56 -18 -36 -31 c-26 -23 -45 -32 -72 -32 -20 0 -44 -7 -54 -16 -16 -15
-18 -13 -28 23 -6 21 -11 64 -11 96 0 63 -1 63 57 19z"/>
<path d="M1031 614 c0 -11 3 -14 6 -6 3 7 2 16 -1 19 -3 4 -6 -2 -5 -13z"/>
<path d="M445 478 c-22 -12 -78 -36 -124 -55 -47 -18 -92 -40 -101 -48 -8 -8
-37 -24 -62 -35 -47 -20 -47 -21 -36 -53 15 -41 102 -125 167 -161 l51 -27 0
33 c1 88 63 258 121 331 16 20 29 37 27 37 -2 -1 -21 -10 -43 -22z m-86 -129
c-11 -28 -24 -74 -30 -102 -17 -80 -19 -82 -67 -47 -52 38 -104 111 -83 118 8
3 32 22 52 43 35 36 43 39 93 39 l54 0 -19 -51z"/>
<path d="M590 445 c0 -4 6 -13 14 -21 8 -8 20 -40 26 -72 7 -31 23 -77 35
-102 13 -25 29 -65 36 -90 7 -25 16 -49 20 -54 11 -13 130 46 175 87 22 19 49
53 62 75 l22 40 -52 7 c-130 15 -233 52 -300 106 -21 16 -38 27 -38 24z m136
-111 c21 -9 73 -24 117 -33 l79 -17 -27 -33 c-15 -17 -59 -48 -96 -67 l-69
-34 0 29 c0 25 -21 61 -57 99 -14 15 -16 32 -7 56 8 20 12 20 60 0z"/>
<path d="M543 322 c-47 -98 -125 -208 -154 -217 -35 -11 -20 -23 47 -35 70
-13 174 -9 237 10 l37 11 -25 42 c-13 23 -32 72 -41 107 -9 36 -23 77 -30 92
-8 15 -14 38 -14 53 0 14 -3 25 -7 25 -5 -1 -27 -40 -50 -88z m73 -93 c-6 -47
-3 -60 14 -82 12 -15 16 -28 11 -32 -18 -10 -137 -18 -175 -11 l-37 7 45 50
c25 28 59 75 77 105 30 54 32 55 51 37 17 -15 19 -26 14 -74z"/>
<path d="M929 183 l-34 -38 38 34 c20 19 37 36 37 38 0 8 -8 0 -41 -34z"/>
</g>
</svg>
