<svg version="1.1" id="Layer_1" xmlns="http://www.w3.org/2000/svg" xmlns:xlink="http://www.w3.org/1999/xlink" x="0px" y="0px"
	 width="100%" viewBox="0 0 1334 1334" enable-background="new 0 0 1334 1334" xml:space="preserve">
<path fill="#1C9957" opacity="1.000000" stroke="none" 
	d="
M1.000008,1226.000000 
	C1.000000,889.302429 1.000000,552.604858 1.327663,215.597137 
	C2.742175,212.177139 4.060699,209.126709 4.876631,205.947327 
	C8.870023,190.386520 16.929350,176.986694 28.001474,165.725800 
	C34.713924,158.898911 42.697781,153.102615 50.792580,147.905838 
	C62.963860,140.091995 76.730759,135.193756 91.113297,135.177216 
	C305.338379,134.930725 519.563843,135.019302 733.737305,135.355911 
	C720.443726,153.707184 708.895935,172.738510 699.334656,192.977631 
	C677.996155,238.146988 668.047729,285.891968 667.065369,335.643799 
	C666.954956,341.238739 667.605835,346.865051 668.149292,352.452881 
	C669.060852,361.826263 669.786560,371.241486 671.265198,380.531708 
	C676.541870,413.685272 687.647583,444.925781 703.192505,474.600342 
	C708.898987,485.493683 715.103638,496.126129 720.798462,507.073914 
	C719.450195,508.328156 718.381165,509.382782 717.319275,510.444580 
	C480.164368,747.588013 243.010620,984.732605 5.840431,1221.860840 
	C4.343678,1223.357300 2.618509,1224.625244 1.000008,1226.000000 
M284.453217,353.019073 
	C284.369934,353.344971 284.286652,353.670898 284.076172,354.926666 
	C284.076172,377.379578 284.076172,399.832489 284.076172,422.894592 
	C317.387573,422.894592 350.239746,422.894592 383.413361,422.894592 
	C383.131805,424.345703 383.073730,425.179108 382.807739,425.939850 
	C365.198792,476.303711 326.114441,493.683624 287.671539,495.905884 
	C273.213226,496.741669 259.145569,493.776184 245.618744,488.661133 
	C198.568192,470.869446 174.138596,428.259186 173.209167,386.022217 
	C173.009903,376.966919 174.653656,367.656525 176.817963,358.798248 
	C191.997787,296.669098 254.735321,260.551636 318.103271,279.806885 
	C332.097015,284.059082 344.499542,291.378723 355.328918,300.392883 
	C372.687653,283.138153 389.766296,266.161804 407.361542,248.671951 
	C406.919952,248.437012 406.232513,248.218826 405.733093,247.784454 
	C375.151367,221.187561 339.990509,205.323792 299.265198,203.107086 
	C286.590332,202.417175 273.752228,202.103622 261.148834,203.301331 
	C238.795944,205.425522 217.561050,212.248978 197.938080,223.192505 
	C144.624039,252.925217 112.609749,297.849487 102.759163,358.295074 
	C100.020393,375.100830 99.985107,391.960205 102.271584,408.786713 
	C107.342140,446.101715 122.163361,479.085114 147.439362,507.050751 
	C183.483414,546.930176 228.980255,566.736023 282.332489,568.858704 
	C291.169037,569.210205 300.086578,567.761963 308.955475,567.012512 
	C324.182922,565.725769 339.035339,562.523499 353.397736,557.355347 
	C401.623779,540.001465 432.576660,505.890076 449.208588,458.026550 
	C454.705261,442.208069 457.628540,425.909821 459.157593,409.222717 
	C460.884888,390.371735 460.129791,371.766968 456.777283,352.963898 
	C454.931946,352.963898 453.450714,352.965210 451.969482,352.963715 
	C423.138336,352.934357 394.307190,352.871796 365.476044,352.884705 
	C338.651306,352.896729 311.826599,352.989136 284.453217,353.019073 
z"/>
<path fill="#D73F35" opacity="1.000000" stroke="none" 
	d="
M721.081055,506.877563 
	C715.103638,496.126129 708.898987,485.493683 703.192505,474.600342 
	C687.647583,444.925781 676.541870,413.685272 671.265198,380.531708 
	C669.786560,371.241486 669.060852,361.826263 668.149292,352.452881 
	C667.605835,346.865051 666.954956,341.238739 667.065369,335.643799 
	C668.047729,285.891968 677.996155,238.146988 699.334656,192.977631 
	C708.895935,172.738510 720.443726,153.707184 733.903809,135.040024 
	C742.359680,124.487175 749.855835,113.821091 759.011230,104.847946 
	C772.168152,91.952919 786.026428,79.647911 800.492249,68.241203 
	C827.403137,47.021221 857.505615,31.327112 889.835632,19.973591 
	C915.376587,11.004219 941.577454,5.017819 968.620789,2.916592 
	C969.458435,2.851512 970.208862,1.664141 971.000000,0.999994 
	C990.687561,1.000000 1010.375183,1.000000 1030.395508,1.420408 
	C1037.266968,2.891410 1043.862915,3.672282 1050.333130,5.044798 
	C1067.541016,8.695056 1084.948242,11.726287 1101.809814,16.612555 
	C1126.039673,23.634014 1148.835938,34.335510 1170.587891,47.197598 
	C1192.841064,60.356022 1213.660156,75.540726 1231.929932,93.756950 
	C1244.729492,106.519012 1256.620850,120.326813 1267.811279,134.538971 
	C1289.003540,161.453720 1304.773560,191.504059 1316.011475,223.862656 
	C1324.882568,249.406586 1331.042480,275.572235 1333.083862,302.622009 
	C1333.146851,303.458130 1334.335815,304.209259 1335.000000,305.000000 
	C1335.000000,324.020905 1335.000000,343.041779 1334.581299,362.399902 
	C1333.446167,366.507355 1332.804932,370.293762 1332.000000,374.045044 
	C1328.721436,389.321411 1326.171875,404.808105 1321.914673,419.808990 
	C1313.935181,447.926666 1301.567261,474.310883 1285.860352,498.883575 
	C1270.578003,522.792053 1254.408081,546.156128 1238.002930,569.316589 
	C1226.211182,585.963745 1213.392212,601.883179 1200.698486,618.166870 
	C1183.061279,641.833069 1165.289673,665.133545 1148.544556,689.149841 
	C1105.374878,751.064453 1070.978638,817.454285 1048.231567,889.627930 
	C1035.710083,929.356567 1026.992920,969.936157 1020.955078,1011.125977 
	C1019.643738,1020.071899 1017.960205,1029.006592 1008.559692,1034.025879 
	C994.804138,1036.967651 986.807007,1033.093140 983.330627,1021.500977 
	C981.723999,1016.143738 980.964294,1010.532471 979.865967,1004.619629 
	C979.623230,1002.397583 979.326050,1000.593567 979.048340,998.786621 
	C971.778503,951.483398 960.127319,905.296448 943.731995,860.322144 
	C920.085144,795.456116 886.645691,735.818542 846.883057,679.603027 
	C835.553589,663.585815 823.641663,647.980652 811.880493,631.859863 
	C795.007019,609.372131 777.953613,587.427124 761.583435,564.983765 
	C747.673523,545.913452 734.551636,526.268311 721.081055,506.877563 
M1115.013672,310.556152 
	C1110.213013,288.736115 1100.202637,269.778259 1084.489868,253.760040 
	C1055.210938,223.911743 1019.529663,214.061966 979.077515,220.600861 
	C951.933716,224.988510 929.781067,238.975937 911.878906,259.675476 
	C894.830017,279.388367 886.049438,302.798920 884.240540,328.382263 
	C882.573853,351.955078 888.164917,374.538116 900.918823,394.569153 
	C926.585876,434.881378 963.376343,454.813171 1011.451843,450.888580 
	C1049.979858,447.743378 1079.653320,428.677368 1100.148193,396.114655 
	C1116.518555,370.104889 1121.305176,341.614227 1115.013672,310.556152 
z"/>
<path fill="#3E7BF1" opacity="1.000000" stroke="none" 
	d="
M1092.000000,1335.000000 
	C764.969116,1335.000000 437.938171,1335.000000 110.475800,1334.658203 
	C110.611206,1333.706543 111.159340,1333.078247 111.747574,1332.489868 
	C273.846436,1170.366089 435.947418,1008.244385 598.062622,846.136963 
	C599.108032,845.091675 600.349854,844.242859 601.714722,843.644409 
	C603.318481,845.426208 604.685425,846.888123 606.099792,848.302612 
	C766.456665,1008.675903 926.818298,1169.044312 1087.161499,1329.431274 
	C1088.895752,1331.166138 1090.392456,1333.138428 1092.000000,1335.000000 
z"/>
<path fill="#FED73D" opacity="1.000000" stroke="none" 
	d="
M601.499939,843.302246 
	C600.349854,844.242859 599.108032,845.091675 598.062622,846.136963 
	C435.947418,1008.244385 273.846436,1170.366089 111.747574,1332.489868 
	C111.159340,1333.078247 110.611206,1333.706543 110.022171,1334.658203 
	C100.645775,1335.000000 91.291542,1335.000000 81.806885,1334.678223 
	C81.047607,1333.890137 80.477730,1333.146118 79.781395,1332.998291 
	C61.397305,1329.097412 45.230938,1320.960083 31.719339,1307.810059 
	C17.061325,1293.544312 7.118085,1276.613647 2.926494,1256.450317 
	C2.803553,1255.859009 1.665002,1255.478638 1.000000,1255.000000 
	C1.000000,1245.645752 1.000000,1236.291504 1.000008,1226.468628 
	C2.618509,1224.625244 4.343678,1223.357300 5.840431,1221.860840 
	C243.010620,984.732605 480.164368,747.588013 717.319275,510.444580 
	C718.381165,509.382782 719.450195,508.328156 720.798462,507.073914 
	C734.551636,526.268311 747.673523,545.913452 761.583435,564.983765 
	C777.953613,587.427124 795.007019,609.372131 811.683105,632.111084 
	C779.021423,665.267700 746.438232,697.844055 713.868347,730.433655 
	C712.464966,731.837830 711.183289,733.363586 709.548096,734.987061 
	C673.816345,770.527161 638.380066,805.911621 602.958008,841.310242 
	C602.382935,841.885132 601.982117,842.634399 601.499939,843.302246 
z"/>
<path fill="#000000" opacity="1.000000" stroke="none" 
	d="
M1201.031616,618.127258 
	C1213.392212,601.883179 1226.211182,585.963745 1238.002930,569.316589 
	C1254.408081,546.156128 1270.578003,522.792053 1285.860352,498.883575 
	C1301.567261,474.310883 1313.935181,447.926666 1321.914673,419.808990 
	C1326.171875,404.808105 1328.721436,389.321411 1332.000000,374.045044 
	C1332.804932,370.293762 1333.446167,366.507355 1334.581299,362.868530 
	C1335.000000,686.880554 1335.000000,1010.761169 1335.000000,1335.000000 
	C1263.646118,1335.000000 1192.291748,1335.000000 1120.157227,1334.659424 
	C1119.867065,1333.891846 1120.287476,1333.272095 1120.857422,1333.066406 
	C1130.272583,1329.668213 1140.260132,1327.373291 1149.027588,1322.757324 
	C1171.083984,1311.144531 1186.388306,1293.049561 1194.897583,1269.598999 
	C1200.099365,1255.263428 1201.676147,1240.272217 1200.876465,1224.579956 
	C1200.984985,1222.118408 1200.998901,1220.118530 1200.999023,1218.118652 
	C1201.010620,1018.121521 1201.021118,818.124390 1201.031616,618.127258 
z"/>
<path fill="#000000" opacity="1.000000" stroke="none" 
	d="
M970.531372,0.999994 
	C970.208862,1.664141 969.458435,2.851512 968.620789,2.916592 
	C941.577454,5.017819 915.376587,11.004219 889.835632,19.973591 
	C857.505615,31.327112 827.403137,47.021221 800.492249,68.241203 
	C786.026428,79.647911 772.168152,91.952919 759.011230,104.847946 
	C749.855835,113.821091 742.359680,124.487175 733.955750,134.712875 
	C519.563843,135.019302 305.338379,134.930725 91.113297,135.177216 
	C76.730759,135.193756 62.963860,140.091995 50.792580,147.905838 
	C42.697781,153.102615 34.713924,158.898911 28.001474,165.725800 
	C16.929350,176.986694 8.870023,190.386520 4.876631,205.947327 
	C4.060699,209.126709 2.742175,212.177139 1.327663,215.143494 
	C1.000000,143.693024 1.000000,72.386047 1.000000,1.000000 
	C324.020905,1.000000 647.041809,1.000000 970.531372,0.999994 
z"/>
<path fill="#EFEFEF" opacity="1.000000" stroke="none" 
	d="
M1200.775513,1225.041626 
	C1201.676147,1240.272217 1200.099365,1255.263428 1194.897583,1269.598999 
	C1186.388306,1293.049561 1171.083984,1311.144531 1149.027588,1322.757324 
	C1140.260132,1327.373291 1130.272583,1329.668213 1120.857422,1333.066406 
	C1120.287476,1333.272095 1119.867065,1333.891846 1119.688477,1334.659424 
	C1110.979126,1335.000000 1101.958130,1335.000000 1092.468628,1335.000000 
	C1090.392456,1333.138428 1088.895752,1331.166138 1087.161499,1329.431274 
	C926.818298,1169.044312 766.456665,1008.675903 606.099792,848.302612 
	C604.685425,846.888123 603.318481,845.426208 601.714722,843.644348 
	C601.982117,842.634399 602.382935,841.885132 602.958008,841.310242 
	C638.380066,805.911621 673.816345,770.527161 709.707214,735.300781 
	C711.179138,736.559814 712.158630,737.696106 713.216431,738.754028 
	C800.970398,826.519226 888.729919,914.278870 976.497009,1002.031006 
	C977.551941,1003.085693 978.710388,1004.036865 979.820557,1005.036377 
	C980.964294,1010.532471 981.723999,1016.143738 983.330627,1021.500977 
	C986.807007,1033.093140 994.804138,1036.967651 1008.705566,1034.325562 
	C1009.474854,1034.883545 1009.658813,1035.167114 1009.892395,1035.400879 
	C1072.298706,1097.823975 1134.705688,1160.246338 1197.144897,1222.636353 
	C1198.151367,1223.642090 1199.556396,1224.248779 1200.775513,1225.041626 
z"/>
<path fill="#000000" opacity="1.000000" stroke="none" 
	d="
M1335.000000,304.531342 
	C1334.335815,304.209259 1333.146851,303.458130 1333.083862,302.622009 
	C1331.042480,275.572235 1324.882568,249.406586 1316.011475,223.862656 
	C1304.773560,191.504059 1289.003540,161.453720 1267.811279,134.538971 
	C1256.620850,120.326813 1244.729492,106.519012 1231.929932,93.756950 
	C1213.660156,75.540726 1192.841064,60.356022 1170.587891,47.197598 
	C1148.835938,34.335510 1126.039673,23.634014 1101.809814,16.612555 
	C1084.948242,11.726287 1067.541016,8.695056 1050.333130,5.044798 
	C1043.862915,3.672282 1037.266968,2.891410 1030.864258,1.420408 
	C1132.260376,1.000000 1233.520752,1.000000 1335.000000,1.000000 
	C1335.000000,102.020790 1335.000000,203.041733 1335.000000,304.531342 
z"/>
<path fill="#000000" opacity="1.000000" stroke="none" 
	d="
M1.000000,1255.468628 
	C1.665002,1255.478638 2.803553,1255.859009 2.926494,1256.450317 
	C7.118085,1276.613647 17.061325,1293.544312 31.719339,1307.810059 
	C45.230938,1320.960083 61.397305,1329.097412 79.781395,1332.998291 
	C80.477730,1333.146118 81.047607,1333.890137 81.338226,1334.678223 
	C54.406437,1335.000000 27.812872,1335.000000 1.000000,1335.000000 
	C1.000000,1308.646118 1.000000,1282.291748 1.000000,1255.468628 
z"/>
<path fill="#FFFFFF" opacity="1.000000" stroke="none" 
	d="
M285.001892,353.046143 
	C311.826599,352.989136 338.651306,352.896729 365.476044,352.884705 
	C394.307190,352.871796 423.138336,352.934357 451.969482,352.963715 
	C453.450714,352.965210 454.931946,352.963898 456.777283,352.963898 
	C460.129791,371.766968 460.884888,390.371735 459.157593,409.222717 
	C457.628540,425.909821 454.705261,442.208069 449.208588,458.026550 
	C432.576660,505.890076 401.623779,540.001465 353.397736,557.355347 
	C339.035339,562.523499 324.182922,565.725769 308.955475,567.012512 
	C300.086578,567.761963 291.169037,569.210205 282.332489,568.858704 
	C228.980255,566.736023 183.483414,546.930176 147.439362,507.050751 
	C122.163361,479.085114 107.342140,446.101715 102.271584,408.786713 
	C99.985107,391.960205 100.020393,375.100830 102.759163,358.295074 
	C112.609749,297.849487 144.624039,252.925217 197.938080,223.192505 
	C217.561050,212.248978 238.795944,205.425522 261.148834,203.301331 
	C273.752228,202.103622 286.590332,202.417175 299.265198,203.107086 
	C339.990509,205.323792 375.151367,221.187561 405.733093,247.784454 
	C406.232513,248.218826 406.919952,248.437012 407.361542,248.671951 
	C389.766296,266.161804 372.687653,283.138153 355.328918,300.392883 
	C344.499542,291.378723 332.097015,284.059082 318.103271,279.806885 
	C254.735321,260.551636 191.997787,296.669098 176.817963,358.798248 
	C174.653656,367.656525 173.009903,376.966919 173.209167,386.022217 
	C174.138596,428.259186 198.568192,470.869446 245.618744,488.661133 
	C259.145569,493.776184 273.213226,496.741669 287.671539,495.905884 
	C326.114441,493.683624 365.198792,476.303711 382.807739,425.939850 
	C383.073730,425.179108 383.131805,424.345703 383.413361,422.894592 
	C350.239746,422.894592 317.387573,422.894592 284.076172,422.894592 
	C284.076172,399.832489 284.076172,377.379578 284.317261,354.344421 
	C284.774811,353.566010 284.922638,353.327332 285.001892,353.046143 
z"/>
<path fill="#E8F5EE" opacity="1.000000" stroke="none" 
	d="
M284.727539,353.032593 
	C284.922638,353.327332 284.774811,353.566010 284.380859,353.879486 
	C284.286652,353.670898 284.369934,353.344971 284.727539,353.032593 
z"/>
<path fill="#CBCCC9" opacity="1.000000" stroke="none" 
	d="
M1200.876465,1224.579956 
	C1199.556396,1224.248779 1198.151367,1223.642090 1197.144897,1222.636353 
	C1134.705688,1160.246338 1072.298706,1097.823975 1009.892395,1035.400879 
	C1009.658813,1035.167114 1009.474854,1034.883545 1009.121826,1034.323608 
	C1017.960205,1029.006592 1019.643738,1020.071899 1020.955078,1011.125977 
	C1026.992920,969.936157 1035.710083,929.356567 1048.231567,889.627930 
	C1070.978638,817.454285 1105.374878,751.064453 1148.544556,689.149841 
	C1165.289673,665.133545 1183.061279,641.833069 1200.698486,618.166870 
	C1201.021118,818.124390 1201.010620,1018.121521 1200.999023,1218.118652 
	C1200.998901,1220.118530 1200.984985,1222.118408 1200.876465,1224.579956 
z"/>
<path fill="#752622" opacity="1.000000" stroke="none" 
	d="
M1115.063965,310.978394 
	C1121.305176,341.614227 1116.518555,370.104889 1100.148193,396.114655 
	C1079.653320,428.677368 1049.979858,447.743378 1011.451843,450.888580 
	C963.376343,454.813171 926.585876,434.881378 900.918823,394.569153 
	C888.164917,374.538116 882.573853,351.955078 884.240540,328.382263 
	C886.049438,302.798920 894.830017,279.388367 911.878906,259.675476 
	C929.781067,238.975937 951.933716,224.988510 979.077515,220.600861 
	C1019.529663,214.061966 1055.210938,223.911743 1084.489868,253.760040 
	C1100.202637,269.778259 1110.213013,288.736115 1115.063965,310.978394 
z"/>
<path fill="#CBCCC9" opacity="1.000000" stroke="none" 
	d="
M979.865967,1004.619629 
	C978.710388,1004.036865 977.551941,1003.085693 976.497009,1002.031006 
	C888.729919,914.278870 800.970398,826.519226 713.216431,738.754028 
	C712.158630,737.696106 711.179138,736.559814 710.003967,735.146423 
	C711.183289,733.363586 712.464966,731.837830 713.868347,730.433655 
	C746.438232,697.844055 779.021423,665.267700 811.799438,632.437744 
	C823.641663,647.980652 835.553589,663.585815 846.883057,679.603027 
	C886.645691,735.818542 920.085144,795.456116 943.731995,860.322144 
	C960.127319,905.296448 971.778503,951.483398 979.048340,998.786621 
	C979.326050,1000.593567 979.623230,1002.397583 979.865967,1004.619629 
z"/>
</svg>