<svg version="1.0" xmlns="http://www.w3.org/2000/svg"
 width="134.000000pt" height="143.000000pt" viewBox="0 0 134.000000 143.000000"
 preserveAspectRatio="xMidYMid meet">

<g transform="translate(0.000000,143.000000) scale(0.100000,-0.100000)"
fill="#000000" stroke="none">
<path d="M745 1409 c-74 -11 -163 -42 -232 -81 -86 -48 -68 -46 32 3 147 72
256 86 398 50 80 -21 130 -48 212 -117 83 -69 123 -163 145 -342 23 -181 -41
-312 -202 -416 -100 -63 -163 -78 -318 -74 -131 3 -138 4 -205 37 -87 43 -202
154 -230 223 -20 48 -29 56 -40 38 -3 -6 -18 -10 -33 -10 -20 0 -23 -3 -13 -9
12 -8 9 -12 -15 -21 -91 -36 -125 -58 -167 -109 -32 -38 -25 -51 29 -51 35 0
137 -33 171 -55 12 -8 24 -15 27 -15 8 0 -21 105 -42 150 -24 51 -29 81 -10
62 6 -6 26 -55 43 -109 l33 -97 21 43 c29 57 38 45 15 -19 -23 -65 -47 -80
-78 -51 -29 28 -127 62 -196 68 -54 6 -55 6 -37 -14 22 -25 131 -79 190 -94
59 -14 66 -38 27 -100 -33 -55 -50 -108 -50 -164 l0 -39 40 39 c43 42 74 100
85 158 8 42 25 50 25 12 0 -48 -41 -134 -86 -181 -25 -25 -44 -48 -42 -50 9
-8 148 -16 181 -10 33 6 35 8 27 34 -48 153 -59 192 -64 220 -3 19 -2 32 2 30
4 -2 34 -16 66 -32 45 -23 76 -30 137 -34 49 -3 79 -1 79 5 0 14 -72 62 -117
79 -21 7 -66 13 -100 14 -74 0 -79 11 -36 73 29 41 46 34 19 -8 -22 -34 -21
-36 19 -19 47 19 65 17 36 -5 l-24 -18 40 -5 c22 -3 62 -16 89 -29 27 -13 54
-25 59 -27 6 -3 1 5 -9 17 -16 17 -16 21 -4 21 17 0 32 -26 23 -40 -2 -4 4
-15 15 -25 20 -18 20 -17 20 28 0 26 5 47 10 47 15 0 12 -113 -5 -153 -30 -73
-98 -134 -194 -174 -44 -19 -49 -23 -21 -17 19 3 54 17 78 31 107 61 158 137
168 251 l7 72 38 0 c163 0 314 57 416 158 109 108 143 212 123 376 -22 179
-63 274 -152 351 -120 103 -267 147 -423 124z m-488 -841 c16 -17 23 -33 19
-45 -6 -19 -8 -19 -74 4 -37 12 -78 23 -91 23 l-24 0 24 26 c13 14 44 36 69
49 l45 23 3 -26 c2 -15 15 -39 29 -54z m81 -12 c3 -12 -1 -17 -10 -14 -7 3
-15 13 -16 22 -3 12 1 17 10 14 7 -3 15 -13 16 -22z m-146 -86 c29 -11 64 -29
78 -40 l25 -20 -55 16 c-52 15 -86 30 -120 53 -26 18 14 13 72 -9z m198 -9 c0
-6 -4 -13 -10 -16 -5 -3 -10 1 -10 9 0 9 5 16 10 16 6 0 10 -4 10 -9z m-30
-86 c0 -40 -24 -49 -34 -12 -10 37 -7 47 14 47 16 0 20 -7 20 -35z m177 -31
c26 -9 55 -23 63 -31 13 -14 9 -15 -41 -10 -49 5 -139 38 -139 52 0 11 72 4
117 -11z m-237 -107 c-12 -24 -31 -54 -44 -66 l-24 -22 7 38 c8 41 22 71 55
118 l21 30 3 -26 c2 -15 -6 -47 -18 -72z m105 -60 c1 -23 4 -52 9 -64 7 -22 6
-23 -63 -23 -39 0 -71 3 -71 6 0 4 15 23 34 44 19 21 40 54 47 74 12 32 15 35
28 21 9 -9 16 -34 16 -58z"/>
<path d="M725 1365 c-5 -2 -29 -9 -53 -15 l-42 -11 24 -42 c14 -23 33 -72 42
-107 9 -36 23 -77 30 -92 8 -15 14 -38 14 -53 0 -14 3 -25 8 -25 4 1 26 40 49
88 47 98 125 208 154 217 33 11 21 22 -38 34 -53 10 -166 14 -188 6z m162 -41
c22 -6 21 -8 -22 -56 -24 -27 -58 -74 -76 -104 -30 -54 -32 -55 -51 -37 -17
15 -19 26 -14 74 6 47 3 60 -14 82 -22 28 -21 30 25 40 31 7 127 7 152 1z"/>
<path d="M533 1295 c-71 -35 -128 -88 -157 -143 l-16 -30 53 -7 c129 -15 232
-52 300 -106 36 -29 51 -31 23 -3 -8 8 -20 40 -26 72 -7 31 -22 75 -33 97 -11
22 -28 65 -37 95 -10 30 -22 56 -27 57 -5 2 -41 -12 -80 -32z m103 -107 c10
-12 25 -28 32 -36 14 -16 15 -41 3 -61 -8 -12 -16 -11 -53 4 -23 9 -78 25
-122 34 l-78 17 27 33 c15 17 57 47 94 66 l66 33 6 -34 c3 -19 14 -44 25 -56z"/>
<path d="M1000 1298 c-1 -88 -63 -258 -121 -331 l-31 -38 52 26 c28 14 85 39
127 55 42 16 83 36 92 44 9 8 38 25 63 36 47 20 47 21 36 53 -15 41 -102 125
-167 161 l-51 27 0 -33z m108 -92 c13 -11 33 -36 45 -55 16 -27 18 -36 7 -39
-7 -3 -31 -22 -51 -43 -35 -36 -43 -39 -92 -39 l-54 0 24 73 c13 39 28 91 34
115 l10 44 27 -18 c15 -9 37 -26 50 -38z"/>
<path d="M920 1263 c-48 -55 -113 -166 -136 -236 -21 -62 -44 -75 -79 -43 -54
50 -176 94 -307 110 -42 5 -48 3 -48 -13 0 -35 157 -120 280 -151 53 -14 67
-22 74 -42 7 -20 4 -32 -16 -59 -48 -66 -81 -156 -91 -255 -7 -63 3 -69 50
-29 69 59 119 154 137 260 4 25 0 33 -17 40 -23 11 -40 59 -31 88 4 11 16 17
36 17 l30 0 -4 -55 c-3 -30 -1 -55 4 -55 14 0 9 -55 -12 -115 -26 -76 -69
-142 -130 -199 l-49 -46 27 -7 c15 -5 88 -8 162 -8 115 0 134 2 131 15 -13 54
-62 211 -75 242 -9 21 -16 52 -16 71 0 18 -5 38 -12 45 -20 20 2 27 30 8 80
-52 157 -79 244 -84 47 -2 98 -2 113 2 27 7 27 7 9 28 -65 71 -184 118 -303
118 -95 0 -104 12 -56 75 42 56 82 149 100 234 8 40 15 77 15 82 0 20 -20 7
-60 -38z m1 -102 c-35 -96 -99 -196 -115 -180 -2 2 6 30 19 61 24 60 106 191
113 183 3 -3 -5 -31 -17 -64z m-386 -118 c53 -16 155 -72 155 -85 0 -10 2 -11
-61 8 -50 15 -165 69 -199 94 -19 14 31 6 105 -17z m548 -202 c71 -34 103 -61
72 -61 -79 0 -223 45 -270 85 -19 15 -16 16 57 11 58 -3 92 -12 141 -35z
m-333 -27 c0 -46 -73 -189 -114 -223 -42 -35 2 115 58 200 29 44 56 55 56 23z
m95 -124 c13 -15 18 -38 19 -87 1 -38 5 -76 10 -85 7 -17 0 -18 -91 -18 -55 0
-102 2 -104 5 -3 2 16 28 42 56 27 27 58 72 71 99 13 27 26 49 29 50 3 0 14
-9 24 -20z"/>
<path d="M399 1243 l-34 -38 38 34 c34 33 42 41 34 41 -2 0 -19 -17 -38 -37z"/>
<path d="M1088 1017 c-76 -39 -136 -72 -135 -74 2 -2 39 -12 82 -23 85 -22
158 -63 204 -115 l29 -33 5 35 c9 55 -25 284 -41 282 -4 -1 -69 -33 -144 -72z
m140 -91 c5 -87 7 -85 -55 -38 -18 13 -58 32 -88 41 l-56 18 36 31 c27 24 45
32 74 32 23 0 44 6 52 16 11 14 14 13 23 -3 5 -10 12 -53 14 -97z"/>
<path d="M330 950 c0 -76 15 -190 25 -190 1 0 22 9 46 20 24 11 52 20 61 20
20 0 198 82 198 91 0 4 -21 12 -46 18 -58 15 -164 63 -225 101 -25 17 -49 30
-52 30 -4 0 -7 -40 -7 -90z m191 -35 l58 -21 -36 -29 c-28 -22 -49 -29 -87
-31 -28 -1 -57 -4 -65 -6 -19 -4 -34 71 -26 129 l6 42 46 -32 c26 -17 73 -40
104 -52z"/>
<path d="M585 825 l-70 -23 43 -1 c23 -1 42 -2 42 -4 0 -1 -9 -30 -21 -62 -12
-33 -23 -83 -26 -112 -5 -47 -8 -51 -24 -42 -20 10 -119 129 -119 142 0 4 10
11 23 16 12 5 30 18 40 29 16 18 12 17 -48 -6 -56 -22 -64 -29 -59 -46 12 -41
71 -112 135 -163 l64 -52 7 72 c8 85 28 152 69 225 16 28 26 52 22 51 -5 -1
-39 -11 -78 -24z"/>
<path d="M301 814 c0 -11 3 -14 6 -6 3 7 2 16 -1 19 -3 4 -6 -2 -5 -13z"/>
<path d="M873 742 c10 -41 29 -97 43 -124 14 -27 28 -71 31 -98 5 -47 6 -48
34 -40 102 30 242 157 279 256 9 22 8 25 -2 17 -22 -17 -125 -24 -196 -13 -37
6 -99 26 -137 44 l-71 33 19 -75z m233 -36 l82 -1 -20 -27 c-26 -38 -88 -88
-147 -121 l-51 -28 0 26 c0 32 -21 73 -49 99 -20 19 -27 50 -16 78 5 12 15 11
63 -5 36 -12 87 -20 138 -21z"/>
<path d="M28 440 c-4 -27 8 -149 15 -156 5 -5 121 36 169 60 l47 24 -61 22
c-33 12 -83 35 -110 51 -27 16 -50 29 -52 29 -2 0 -6 -14 -8 -30z m160 -60
c13 0 12 -4 -5 -22 -14 -13 -41 -24 -72 -28 l-50 -6 -7 43 c-11 72 -3 77 62
43 31 -17 63 -30 72 -30z"/>
<path d="M221 326 c-27 -9 -31 -14 -18 -19 15 -5 15 -10 3 -39 -8 -18 -17 -55
-21 -81 l-7 -49 -32 31 c-44 42 -72 91 -53 91 8 0 20 7 27 15 7 8 10 15 7 15
-11 0 -77 -31 -77 -36 0 -29 131 -169 137 -147 1 4 9 41 17 82 9 41 27 92 41
113 28 41 26 42 -24 24z"/>
<path d="M416 263 c7 -27 20 -66 30 -88 9 -22 20 -55 23 -72 l6 -33 51 24 c64
30 120 79 145 127 10 21 19 40 19 41 0 2 -44 3 -98 4 -80 0 -104 4 -139 22
-23 12 -44 22 -46 22 -2 0 2 -21 9 -47z m152 -22 l74 -6 -21 -27 c-24 -30
-108 -88 -128 -88 -7 0 -13 8 -13 17 0 9 -12 34 -26 54 -34 49 -27 84 14 67
15 -5 60 -13 100 -17z"/>
<path d="M393 33 c9 -2 23 -2 30 0 6 3 -1 5 -18 5 -16 0 -22 -2 -12 -5z"/>
</g>
</svg>
