<svg version="1.0" xmlns="http://www.w3.org/2000/svg"
 width="134.000000pt" height="143.000000pt" viewBox="0 0 134.000000 143.000000"
 preserveAspectRatio="xMidYMid meet">

<g transform="translate(0.000000,143.000000) scale(0.100000,-0.100000)"
fill="#000000" stroke="none">
<path d="M393 1393 c9 -2 23 -2 30 0 6 3 -1 5 -18 5 -16 0 -22 -2 -12 -5z"/>
<path d="M511 1367 c96 -40 164 -101 194 -174 17 -40 20 -153 5 -153 -5 0 -10
21 -10 47 0 45 0 46 -20 28 -11 -10 -17 -21 -15 -25 9 -14 -6 -40 -23 -40 -12
0 -12 4 4 21 10 12 15 20 9 17 -5 -2 -32 -14 -59 -27 -27 -13 -67 -26 -89 -29
l-40 -5 24 -18 c29 -22 11 -24 -36 -5 -40 17 -41 15 -19 -19 27 -42 10 -49
-19 -8 -43 62 -38 73 36 73 34 1 79 7 100 14 45 17 117 65 117 79 0 6 -30 8
-79 5 -61 -4 -92 -11 -137 -34 -32 -16 -62 -30 -66 -32 -4 -2 -5 11 -2 30 5
28 16 67 64 220 8 26 6 28 -27 34 -33 6 -172 -2 -181 -10 -2 -2 17 -25 42 -50
45 -47 86 -133 86 -181 0 -38 -17 -30 -25 12 -11 58 -42 116 -85 158 l-40 39
0 -39 c0 -56 17 -109 50 -164 39 -62 32 -86 -27 -100 -59 -15 -168 -69 -190
-94 -18 -20 -17 -20 37 -14 69 6 167 40 196 68 31 29 55 14 78 -51 23 -64 14
-76 -15 -19 l-21 43 -33 -97 c-17 -54 -37 -103 -43 -109 -19 -19 -14 11 10 62
21 45 50 150 42 150 -3 0 -15 -7 -27 -15 -34 -22 -136 -55 -171 -55 -54 0 -61
-13 -29 -51 42 -51 76 -73 167 -109 24 -9 27 -13 15 -21 -10 -6 -7 -9 13 -9
15 0 30 -4 33 -10 11 -18 20 -10 40 38 28 69 143 180 230 223 67 33 74 34 205
37 155 4 218 -11 318 -74 161 -104 225 -235 202 -416 -22 -179 -62 -273 -145
-342 -82 -69 -132 -96 -212 -117 -142 -36 -251 -22 -398 50 -51 25 -89 41 -84
34 18 -20 153 -82 219 -99 82 -21 218 -21 290 0 102 30 213 108 269 190 37 53
67 154 81 272 20 164 -14 268 -123 376 -102 101 -253 158 -416 158 l-38 0 -7
72 c-10 114 -61 190 -168 251 -24 14 -59 28 -78 31 -28 6 -23 2 21 -17z m-97
-49 c-5 -13 -8 -42 -9 -64 0 -23 -7 -49 -14 -58 -12 -14 -16 -11 -36 31 -12
27 -34 59 -49 72 -14 14 -26 28 -26 33 0 4 32 8 71 8 69 0 70 -1 63 -22z
m-115 -124 c22 -46 28 -100 11 -89 -19 12 -63 97 -70 137 l-8 39 24 -22 c13
-12 32 -41 43 -65z m302 -78 c-16 -20 -114 -48 -153 -44 l-33 3 35 19 c47 25
77 34 124 35 31 1 36 -1 27 -13z m-241 -61 c0 -28 -4 -35 -20 -35 -21 0 -24
10 -14 48 10 36 34 27 34 -13z m-90 -55 c-28 -22 -121 -60 -148 -60 -29 0 27
33 98 57 79 27 81 27 50 3z m120 -31 c0 -5 -4 -9 -10 -9 -5 0 -10 7 -10 16 0
8 5 12 10 9 6 -3 10 -10 10 -16z m-133 -107 c-16 -16 -27 -39 -27 -55 l0 -27
-47 24 c-27 13 -59 36 -72 50 l-24 26 24 0 c13 1 53 11 89 23 62 21 65 21 74
4 7 -13 3 -24 -17 -45z m83 14 c0 -16 -18 -31 -27 -22 -8 8 5 36 17 36 5 0 10
-6 10 -14z"/>
<path d="M470 1336 c0 -14 -9 -46 -21 -73 -22 -49 -49 -143 -42 -143 2 0 23
10 46 22 35 18 59 22 139 22 54 1 98 2 98 4 0 1 -9 20 -19 41 -30 57 -96 111
-176 141 -22 9 -25 7 -25 -14z m83 -57 c26 -17 56 -43 68 -57 l21 -27 -74 -6
c-40 -4 -85 -12 -100 -17 -41 -17 -48 18 -14 67 14 20 26 45 26 54 0 25 21 21
73 -14z"/>
<path d="M138 1290 c-41 -36 -88 -96 -88 -114 0 -5 66 -36 77 -36 3 0 0 7 -7
15 -7 8 -19 15 -27 15 -19 0 9 49 53 91 l32 31 7 -49 c4 -26 13 -63 20 -80 12
-28 12 -34 -2 -41 -13 -8 -11 -10 10 -16 14 -3 33 -9 42 -12 13 -6 11 2 -9 33
-15 22 -33 72 -42 114 -8 41 -16 78 -17 82 -1 5 -23 -10 -49 -33z"/>
<path d="M35 1109 c-8 -48 -10 -138 -2 -145 2 -3 27 8 55 25 27 16 77 39 110
51 l61 22 -47 24 c-26 13 -67 31 -92 38 -25 8 -52 17 -62 21 -13 5 -17 -2 -23
-36z m148 -37 c17 -18 18 -22 5 -22 -9 0 -41 -13 -72 -30 -65 -34 -73 -29 -62
43 l7 43 50 -6 c31 -4 58 -15 72 -28z"/>
<path d="M675 965 c-5 -2 -22 -6 -37 -9 l-27 -6 49 -46 c61 -57 104 -123 130
-199 21 -60 26 -115 12 -115 -5 0 -7 -25 -4 -55 l4 -55 -30 0 c-20 0 -32 6
-36 18 -9 28 8 76 31 87 17 7 21 15 17 40 -18 106 -68 201 -137 260 -47 40
-57 34 -50 -29 10 -99 43 -189 91 -255 20 -27 23 -39 16 -59 -7 -20 -21 -28
-74 -42 -123 -31 -280 -116 -280 -151 0 -16 6 -18 48 -13 131 16 253 60 307
110 35 32 58 19 79 -43 35 -105 169 -302 191 -281 11 11 -23 156 -53 222 -15
33 -41 79 -57 101 -48 63 -39 75 56 75 119 0 238 47 303 118 18 21 18 21 -9
28 -15 4 -66 4 -113 2 -87 -5 -164 -32 -244 -84 -28 -19 -50 -12 -30 8 7 7 12
27 12 45 0 19 7 50 16 71 13 31 62 188 75 242 3 13 -16 15 -121 17 -69 1 -129
0 -135 -2z m199 -52 c-5 -10 -9 -49 -10 -86 -1 -55 -5 -73 -22 -90 -12 -11
-23 -19 -24 -16 -2 2 -14 26 -27 52 -14 27 -45 71 -71 98 -25 27 -44 52 -41
54 2 3 49 5 104 5 91 0 98 -1 91 -17z m-194 -128 c15 -22 39 -71 52 -108 20
-58 21 -69 8 -77 -27 -17 -120 157 -120 227 0 22 2 24 16 12 9 -7 28 -31 44
-54z m480 -150 c-7 -8 -42 -29 -77 -46 -49 -23 -83 -32 -141 -35 -73 -5 -76
-4 -57 11 47 40 175 81 259 84 24 1 27 -1 16 -14z m-470 -163 c0 -13 -102 -69
-155 -85 -74 -23 -124 -31 -105 -17 32 23 138 74 190 91 64 21 70 22 70 11z
m147 -44 c37 -42 103 -183 103 -220 0 -28 -89 114 -119 190 -22 56 -17 66 16
30z"/>
<path d="M947 910 c-3 -27 -17 -71 -31 -98 -14 -27 -33 -83 -43 -124 l-19 -75
71 33 c38 18 100 38 137 44 71 11 174 4 196 -13 10 -8 11 -5 2 17 -37 99 -177
226 -279 256 -28 8 -29 7 -34 -40z m163 -98 c22 -18 48 -45 58 -60 l20 -27
-82 -1 c-51 -1 -102 -9 -138 -21 -48 -16 -58 -17 -63 -5 -11 28 -4 59 16 78
28 26 49 67 49 99 l0 26 51 -28 c28 -15 68 -43 89 -61z"/>
<path d="M501 877 c-64 -51 -123 -122 -135 -163 -5 -17 3 -24 59 -46 60 -23
64 -24 48 -6 -10 11 -28 24 -40 29 -13 5 -23 12 -23 16 0 13 99 132 119 142
16 9 19 5 24 -42 3 -29 14 -79 26 -112 12 -32 21 -61 21 -62 0 -2 -19 -3 -42
-4 -42 -1 -41 -1 32 -25 41 -13 76 -24 78 -24 1 0 -11 24 -27 53 -41 72 -61
139 -69 224 l-7 72 -64 -52z"/>
<path d="M341 620 c-12 -55 -15 -230 -4 -230 3 0 27 13 52 30 61 38 167 86
225 101 25 6 46 14 46 18 0 9 -178 91 -198 91 -9 0 -37 9 -61 20 -24 11 -45
20 -46 20 -2 0 -8 -23 -14 -50z m113 -24 c41 -2 60 -8 89 -31 l36 -29 -58 -21
c-31 -12 -78 -35 -103 -52 l-46 -31 -7 34 c-6 32 2 119 12 137 2 4 9 5 14 1 6
-3 34 -7 63 -8z"/>
<path d="M1241 627 c-41 -50 -121 -95 -205 -117 -44 -11 -81 -22 -83 -23 -2
-3 242 -130 278 -145 17 -7 53 235 41 284 l-7 31 -24 -30z m-21 -198 c-11 -38
-12 -40 -29 -25 -10 9 -34 16 -54 16 -27 0 -46 9 -72 32 l-36 31 55 17 c30 10
74 32 98 49 l43 32 3 -55 c2 -30 -2 -74 -8 -97z"/>
<path d="M301 614 c0 -11 3 -14 6 -6 3 7 2 16 -1 19 -3 4 -6 -2 -5 -13z"/>
<path d="M879 463 c58 -73 120 -243 121 -331 l0 -33 51 27 c65 36 152 120 167
161 11 32 11 33 -36 53 -25 11 -54 28 -63 36 -9 8 -50 28 -92 44 -42 16 -99
41 -127 55 l-52 26 31 -38z m230 -102 c20 -21 44 -40 52 -43 21 -7 -31 -80
-83 -118 -48 -35 -50 -33 -67 47 -6 28 -19 74 -30 102 l-19 51 54 0 c50 0 58
-3 93 -39z"/>
<path d="M724 429 c-42 -47 -184 -99 -312 -114 l-52 -7 22 -40 c13 -22 40 -56
62 -75 45 -41 164 -100 175 -87 4 5 13 29 20 54 7 25 23 65 36 90 12 25 28 71
35 102 6 32 18 65 27 73 8 9 13 18 11 21 -3 2 -13 -5 -24 -17z m-50 -95 c9
-24 7 -41 -7 -56 -36 -38 -57 -74 -57 -99 l0 -29 -69 34 c-37 19 -81 50 -96
67 l-27 33 78 17 c44 9 95 24 114 32 46 20 57 20 64 1z"/>
<path d="M740 385 c0 -15 -6 -38 -14 -53 -7 -15 -21 -56 -30 -92 -9 -35 -28
-84 -41 -107 l-25 -42 37 -11 c63 -19 167 -23 237 -10 67 12 82 24 47 35 -29
9 -107 119 -154 217 -23 48 -45 87 -49 88 -5 0 -8 -11 -8 -25z m50 -119 c17
-30 51 -77 76 -105 l45 -50 -37 -7 c-38 -7 -157 1 -175 11 -5 4 -1 17 11 33
18 22 20 34 14 79 -5 44 -3 57 11 73 10 11 19 20 21 20 1 0 17 -24 34 -54z"/>
<path d="M400 185 c19 -19 36 -35 39 -35 3 0 -10 16 -29 35 -19 19 -36 35 -39
35 -3 0 10 -16 29 -35z"/>
</g>
</svg>
