<svg version="1.1" id="Layer_1" xmlns="http://www.w3.org/2000/svg" xmlns:xlink="http://www.w3.org/1999/xlink" x="0px" y="0px"
	 width="100%" viewBox="0 0 864 976" enable-background="new 0 0 864 976" xml:space="preserve">
<path fill="#000000" opacity="1.000000" stroke="none" 
	d="
M1.000000,514.000000 
	C1.000000,502.645782 1.000000,491.291534 1.000499,479.069153 
	C1.857579,472.627625 2.672289,467.047455 3.577501,461.481995 
	C9.713500,423.756195 24.873650,390.136414 50.132866,361.389984 
	C80.274864,327.086639 117.971230,306.819489 163.822800,303.942932 
	C200.485199,301.642822 233.919525,312.288605 263.936920,333.352661 
	C267.817657,336.075867 270.551941,336.241943 274.586029,333.806305 
	C322.789886,304.703308 371.098297,275.773438 419.381470,246.801865 
	C453.523163,226.315720 487.665741,205.831085 521.816711,185.360413 
	C524.280090,183.883804 526.430908,182.540298 526.696167,179.061737 
	C528.466980,155.842270 533.507202,133.327408 542.855469,111.971825 
	C563.660278,64.444389 596.636353,29.067499 645.768860,10.061693 
	C657.477234,5.532571 669.795227,3.508653 682.000000,1.000000 
	C693.020874,1.000000 704.041809,1.000000 715.902527,1.112922 
	C720.672485,1.881413 724.623474,2.431741 728.529480,3.208545 
	C776.606262,12.769778 812.589600,39.866997 839.541199,79.965942 
	C850.951721,96.942772 858.839844,115.579056 865.000000,135.000000 
	C865.000000,175.354233 865.000000,215.708450 864.913574,256.880981 
	C864.488831,258.458130 864.068909,259.191620 863.823792,259.979462 
	C853.628357,292.751373 836.675110,321.435638 811.719543,345.120667 
	C782.508850,372.844177 747.871216,389.002502 707.518921,391.123138 
	C668.981018,393.148407 634.284363,381.476379 603.445618,358.436859 
	C600.006592,355.867554 597.520325,355.380676 593.727051,357.655426 
	C518.010376,403.060883 442.220642,448.344513 366.457672,493.672821 
	C365.229523,494.407623 363.588623,494.771515 363.234650,496.563660 
	C363.777130,498.429779 365.566467,498.822449 366.965729,499.609070 
	C446.108765,544.100891 525.274170,588.552979 604.376221,633.117493 
	C607.849487,635.074280 610.320984,635.266113 613.806946,632.926208 
	C643.829041,612.774719 677.077148,604.310852 712.935547,607.916992 
	C748.596252,611.503296 779.465881,626.391785 805.251038,651.250305 
	C842.382629,687.047424 860.961914,731.497864 864.122681,782.456177 
	C866.259277,816.902283 860.249207,850.145569 845.331909,881.472534 
	C826.222290,921.603638 797.342041,952.000488 756.100952,969.794434 
	C749.859558,972.487366 743.373108,974.612305 737.000000,977.000000 
	C711.312439,977.000000 685.624878,977.000000 659.203674,976.770752 
	C649.224915,973.270386 639.769592,970.487305 631.093994,965.816956 
	C567.768616,931.726990 537.981628,876.584656 531.814087,806.845459 
	C531.380493,801.941772 530.088074,799.086182 525.693359,796.698914 
	C441.976746,751.222290 358.326080,705.624207 274.733704,659.919678 
	C270.655487,657.689880 267.911194,657.966614 264.028595,660.567993 
	C210.555344,696.395691 154.681717,701.088928 97.505219,670.744690 
	C56.413937,648.937012 29.972805,613.856201 13.563054,570.795227 
	C6.578165,552.466125 3.164334,533.379028 1.000000,514.000000 
M242.914490,373.611176 
	C214.479980,351.835114 182.787323,343.224823 147.591843,351.504364 
	C113.323502,359.565796 87.951691,380.373016 69.698921,409.875519 
	C48.176205,444.663361 41.229214,482.645294 47.296688,522.968872 
	C52.729336,559.073547 67.711273,590.609375 95.263611,614.958923 
	C128.663864,644.476562 167.021210,653.659363 209.928055,639.141541 
	C228.458618,632.871582 243.861359,621.465515 257.462646,607.706665 
	C261.715332,603.404785 264.884796,603.518311 269.904510,606.281067 
	C319.673676,633.672791 369.582153,660.811584 419.455536,688.014038 
	C470.497437,715.853760 521.532532,743.706116 572.619324,771.463196 
	C575.502136,773.029602 576.484985,774.817261 576.481018,778.114319 
	C576.466736,789.919678 575.714722,801.718018 577.198303,813.534973 
	C582.131226,852.827332 598.083313,886.359009 629.076538,911.645935 
	C655.280823,933.025757 685.342407,941.310730 718.824829,934.637512 
	C747.762695,928.870056 770.630554,913.006653 788.185181,889.786865 
	C817.696289,850.752197 825.867065,806.648315 815.960938,759.311279 
	C808.077393,721.639404 788.995850,690.686768 756.194763,669.352112 
	C733.670776,654.701965 708.881165,649.398682 682.246826,653.184814 
	C658.470276,656.564819 638.710938,668.003601 621.101624,683.800232 
	C612.518555,691.499817 614.385742,689.930725 606.319031,685.414612 
	C549.629395,653.676880 492.996338,621.838013 436.343597,590.034363 
	C392.328857,565.325378 348.327148,540.593018 304.264465,515.969849 
	C300.978363,514.133484 299.341248,512.058350 299.549957,508.134155 
	C299.859283,502.317963 300.131836,496.418457 299.502136,490.654724 
	C298.747162,483.745026 301.412567,480.029236 307.367096,476.501404 
	C367.855896,440.664032 428.144104,404.488068 488.493744,368.415680 
	C525.388611,346.362732 562.327576,324.383087 599.141724,302.196259 
	C603.088257,299.817780 605.725830,299.554047 608.958313,303.199951 
	C612.704956,307.425781 616.879517,311.315552 621.150635,315.026184 
	C653.596924,343.214691 690.404419,354.068726 732.379822,341.513611 
	C763.657410,332.158325 786.892395,311.921631 803.854553,284.522919 
	C827.569275,246.216766 833.931580,204.562531 825.148071,160.706451 
	C817.984253,124.937408 801.113953,94.399063 772.226440,71.480957 
	C744.577515,49.545471 713.141602,40.483654 678.133179,47.454613 
	C644.737366,54.104462 619.360413,73.213379 599.974304,100.651535 
	C578.628418,130.863480 570.431274,165.046127 570.538086,201.527344 
	C570.552917,206.588974 569.145935,209.549286 564.639404,212.235626 
	C503.108917,248.913620 441.708191,285.809235 380.275787,322.651733 
	C343.132629,344.927368 305.956573,367.148712 268.896576,389.561829 
	C265.021271,391.905548 262.546448,391.602264 259.400726,388.471344 
	C254.330704,383.425201 248.800659,378.841217 242.914490,373.611176 
z"/>
</svg>