<svg version="1.0" xmlns="http://www.w3.org/2000/svg"
 width="625.000000pt" height="625.000000pt" viewBox="0 0 625.000000 625.000000"
 preserveAspectRatio="xMidYMid meet">

<g transform="translate(0.000000,625.000000) scale(0.100000,-0.100000)"
fill="#000000" stroke="none">
<path d="M3150 5395 c-113 -13 -301 -47 -350 -64 -14 -5 -59 -19 -100 -31
-162 -48 -404 -161 -550 -255 -465 -301 -766 -729 -844 -1200 -14 -87 -22
-161 -46 -440 -32 -371 -87 -517 -213 -569 -21 -8 -83 -20 -139 -26 -112 -11
-164 -34 -212 -91 -44 -52 -58 -96 -54 -176 3 -67 7 -76 52 -143 27 -39 95
-118 150 -174 102 -104 129 -128 201 -181 22 -17 42 -33 45 -36 3 -3 46 -32
95 -63 122 -77 305 -168 417 -207 45 -15 50 -26 36 -76 -13 -47 -5 -217 12
-258 64 -152 142 -241 260 -298 121 -57 215 -69 336 -43 86 18 163 59 233 123
88 79 146 187 160 298 l6 50 58 0 c695 -5 677 -4 677 -23 0 -36 31 -138 58
-191 42 -84 134 -172 222 -214 121 -57 215 -69 336 -43 84 18 166 60 231 119
148 136 194 299 148 527 -7 34 -6 36 41 58 68 34 227 135 314 200 102 78 312
289 388 390 189 254 292 499 347 831 24 147 17 482 -14 626 -20 91 -27 117
-52 195 -117 370 -389 732 -731 977 -130 93 -184 125 -323 192 -270 130 -462
184 -769 216 -162 17 -268 17 -426 0z m391 -245 c249 -25 459 -82 674 -184
553 -263 920 -735 1006 -1296 13 -87 6 -418 -11 -495 -80 -366 -196 -581 -450
-836 -74 -74 -170 -161 -213 -193 -74 -55 -281 -180 -317 -191 -10 -3 -39 9
-69 30 -103 69 -248 97 -370 70 -137 -29 -238 -97 -332 -222 l-40 -53 -302 0
c-166 0 -353 3 -415 7 l-113 6 -40 59 c-72 106 -185 176 -331 205 -70 14 -85
14 -163 0 -86 -16 -190 -60 -233 -100 -22 -20 -23 -20 -80 -3 -31 10 -70 24
-87 31 -193 84 -324 157 -444 248 -78 58 -311 291 -311 311 0 9 21 15 73 20
293 27 450 208 511 590 14 87 29 236 42 416 18 259 67 450 161 628 259 495
817 860 1438 941 169 23 271 25 416 11z"/>
<path d="M2728 4120 c-54 -16 -107 -61 -139 -116 -30 -52 -32 -162 -5 -214 48
-91 118 -134 221 -134 59 0 78 4 116 26 168 99 159 343 -16 424 -52 25 -124
30 -177 14z"/>
<path d="M3875 4123 c-65 -16 -133 -84 -161 -160 -36 -103 11 -220 114 -280
39 -23 58 -27 117 -27 59 0 78 4 117 27 82 48 118 112 118 210 0 160 -144 269
-305 230z"/>
<path d="M2569 3337 c-18 -12 -40 -34 -47 -47 -26 -50 2 -166 70 -288 36 -64
181 -215 246 -256 225 -141 475 -187 732 -136 208 42 380 135 506 274 138 150
208 335 158 412 -57 86 -192 63 -224 -38 -79 -254 -330 -417 -641 -418 -293 0
-542 167 -610 410 -14 51 -32 76 -71 96 -39 20 -80 17 -119 -9z"/>
</g>
</svg>
