<svg version="1.0" xmlns="http://www.w3.org/2000/svg"
 width="1440.000000pt" height="1440.000000pt" viewBox="0 0 1440.000000 1440.000000"
 preserveAspectRatio="xMidYMid meet">

<g transform="translate(0.000000,1440.000000) scale(0.100000,-0.100000)"
fill="#000000" stroke="none">
<path d="M7230 13392 c-66 -25 -165 -80 -189 -106 -42 -44 -61 -121 -61 -241
0 -120 8 -158 62 -300 81 -210 60 -267 -144 -399 -116 -75 -214 -159 -237
-204 -10 -20 -28 -46 -40 -56 -21 -19 -21 -18 -61 25 -54 58 -112 161 -122
218 -28 149 -22 204 28 287 38 63 46 114 22 141 -9 10 -19 47 -22 83 -26 251
-127 385 -292 382 -88 -1 -190 -50 -229 -109 -17 -26 -75 -301 -83 -392 -6
-83 30 -245 76 -336 13 -27 42 -71 63 -96 61 -73 57 -92 -52 -242 -109 -152
-143 -190 -166 -185 -28 5 -72 107 -89 209 -9 52 -21 102 -26 113 -10 19 -15
19 -150 -1 -70 -10 -95 -71 -77 -190 10 -74 5 -108 -13 -82 -7 10 -7 7 -3 -8
8 -30 -27 -96 -60 -111 -52 -24 -169 17 -181 63 -9 36 2 281 16 345 6 30 11
72 10 93 -1 28 5 43 25 61 77 72 85 308 15 446 -36 71 -126 136 -241 174 -176
58 -219 54 -369 -38 -154 -95 -208 -165 -231 -301 -6 -38 -15 -74 -20 -80 -13
-13 -11 -181 3 -229 6 -22 20 -52 30 -65 10 -13 18 -28 18 -34 0 -5 24 -42 54
-81 30 -39 69 -98 87 -131 18 -33 41 -71 51 -84 21 -27 24 -67 6 -75 -10 -3
-8 -9 5 -19 9 -8 17 -21 17 -30 0 -9 4 -19 10 -22 5 -3 14 -23 20 -44 13 -50
0 -88 -35 -97 -23 -6 -33 1 -73 44 -68 73 -98 83 -229 77 -158 -8 -292 -51
-345 -111 -20 -23 -172 -320 -198 -388 -35 -90 -8 -69 40 31 49 101 87 151 76
102 -3 -13 -8 -54 -11 -91 -9 -91 -27 -156 -63 -222 -21 -38 -26 -56 -17 -56
23 0 48 -31 35 -44 -15 -14 -68 45 -114 128 -38 70 -90 221 -81 236 3 5 1 18
-5 27 -10 16 -11 15 -7 -5 9 -40 -12 -13 -53 71 -22 46 -40 94 -40 108 0 33
29 132 42 140 5 3 9 51 9 107 1 123 -2 128 -124 206 -48 30 -87 61 -86 68 1 7
-1 21 -6 31 -4 11 -2 35 5 57 10 30 10 49 1 86 -13 52 -92 229 -126 284 -51
81 -163 150 -245 150 -54 0 -154 -45 -219 -97 -93 -77 -150 -209 -137 -319 3
-27 9 -83 14 -124 11 -95 28 -134 96 -222 95 -121 98 -200 14 -343 -23 -38
-60 -103 -84 -143 -23 -41 -61 -132 -85 -205 -24 -73 -46 -136 -50 -140 -3 -5
-41 8 -83 28 -86 41 -159 65 -197 65 -35 0 -106 -47 -158 -106 -75 -85 -76
-89 -75 -270 2 -145 4 -166 26 -220 25 -60 91 -166 153 -242 37 -46 51 -94 41
-145 -8 -45 -98 -167 -144 -194 -44 -27 -63 -28 -102 -8 -61 32 -77 117 -39
206 18 42 21 62 16 127 -8 109 -51 221 -172 447 -65 124 -67 125 -185 125
l-98 0 -55 -59 c-102 -111 -167 -241 -193 -388 -8 -48 -25 -114 -38 -147 -13
-34 -29 -83 -35 -110 -15 -60 -16 -186 -3 -242 l9 -41 -61 -6 c-67 -5 -172
-39 -195 -62 -13 -13 -13 -26 -1 -107 31 -202 14 -313 -77 -494 -58 -115 -67
-119 -226 -119 -73 0 -188 4 -257 9 l-126 9 -85 -40 c-95 -44 -173 -111 -185
-157 -4 -16 -2 -43 4 -60 6 -17 14 -56 16 -86 7 -83 16 -118 51 -200 42 -102
124 -221 210 -305 123 -120 303 -286 342 -315 85 -62 119 -132 108 -223 -7
-57 -27 -358 -26 -397 0 -80 -28 -259 -48 -297 -27 -54 -26 -60 9 -106 23 -31
27 -45 23 -73 -7 -42 6 -58 65 -84 59 -26 225 -160 262 -212 17 -23 35 -58 40
-78 10 -38 4 -96 -11 -106 -29 -18 8 -180 70 -302 50 -100 51 -95 -31 -132
-189 -85 -475 -233 -543 -280 -136 -95 -185 -172 -185 -295 0 -95 18 -129 125
-235 41 -41 75 -82 75 -91 0 -23 -14 -32 -102 -68 -42 -18 -79 -40 -83 -49 -9
-23 24 -63 71 -87 30 -15 65 -20 152 -23 75 -3 118 0 125 7 6 6 19 11 29 11
26 0 89 34 110 59 10 12 18 37 18 59 0 27 -3 33 -10 22 -8 -12 -10 -9 -10 12
0 36 25 48 97 48 91 0 127 -15 204 -85 81 -72 137 -96 226 -94 48 1 53 3 28 9
-26 7 -22 8 22 9 48 1 53 -1 59 -24 9 -37 -2 -55 -15 -25 -12 27 -11 2 9 -155
5 -38 9 -108 10 -154 0 -46 4 -111 10 -145 5 -33 14 -101 20 -151 28 -234 72
-469 100 -533 11 -23 34 -55 51 -70 91 -76 676 -402 724 -402 22 0 36 -8 76
-41 40 -33 342 -156 504 -206 28 -9 59 -19 70 -24 34 -13 189 -47 215 -47 14
1 74 -4 134 -10 107 -10 109 -11 150 -50 60 -57 242 -179 386 -259 l125 -69 1
-39 c2 -67 24 -204 40 -253 24 -72 90 -189 145 -258 104 -131 281 -248 469
-309 30 -10 57 -21 60 -24 6 -8 24 -9 206 -17 l151 -7 7 -94 c13 -171 56 -267
169 -377 86 -84 180 -145 278 -182 66 -24 90 -28 235 -32 161 -4 204 2 204 31
0 9 -38 11 -152 9 -173 -4 -250 9 -357 59 -115 55 -237 162 -294 259 -49 84
-72 229 -47 295 17 45 30 17 30 -64 0 -43 3 -81 6 -84 4 -4 32 17 63 45 65 59
166 110 266 134 39 9 77 19 85 21 9 3 -6 16 -38 34 -28 17 -52 35 -52 39 0 11
90 -20 159 -54 29 -15 49 -21 45 -14 -4 7 -23 36 -40 64 -35 54 -52 104 -37
104 19 0 113 -156 113 -187 l0 -31 -117 -4 c-86 -4 -134 -11 -178 -27 -57 -20
-180 -96 -205 -126 -21 -25 34 -38 135 -32 103 6 209 37 312 92 68 36 90 37
73 5 -5 -10 -10 -30 -10 -43 0 -14 -20 -83 -44 -153 -61 -180 -90 -283 -82
-292 10 -9 303 -9 339 1 36 10 35 39 -4 81 -97 107 -167 245 -177 350 -7 82
17 71 41 -18 9 -38 27 -91 39 -120 24 -56 105 -176 119 -176 5 0 9 30 9 66 0
51 -3 65 -14 61 -7 -3 -20 3 -29 14 -14 16 -15 19 -2 19 8 0 15 -6 15 -14 0
-9 7 -12 20 -9 11 3 20 0 20 -6 0 -5 7 -8 15 -5 8 4 15 14 15 24 0 11 6 22 12
26 9 6 5 10 -12 14 -17 4 -26 15 -31 38 -3 17 -25 63 -48 101 -39 67 -41 71
-28 108 9 30 19 40 45 48 31 9 33 12 28 43 -3 18 -1 44 4 58 6 15 6 24 -1 24
-13 0 -59 -29 -91 -58 l-27 -24 -30 21 c-17 12 -34 34 -37 49 -4 15 -20 60
-36 101 -16 41 -28 81 -26 90 4 19 63 -70 79 -120 17 -51 26 -55 38 -18 29 97
84 251 107 301 30 63 27 83 -13 100 l-28 12 26 3 26 4 6 162 c7 210 6 217 -43
217 l-37 0 -7 -83 c-10 -123 -59 -309 -98 -374 -111 -184 -333 -369 -496 -415
-139 -38 -400 -46 -547 -17 -179 37 -336 123 -468 257 -157 158 -206 260 -215
440 -9 208 39 473 114 628 76 156 298 335 483 390 147 43 372 57 486 29 90
-21 99 -20 113 18 20 57 72 126 116 156 95 64 103 65 431 69 165 1 338 3 385
4 47 1 141 -1 210 -5 73 -3 155 -1 198 5 54 8 91 8 147 -1 58 -10 104 -10 207
-1 114 11 139 10 176 -3 l43 -15 146 149 147 150 141 -141 140 -140 182 0
c189 0 304 -15 351 -46 23 -15 29 -14 96 17 67 32 77 34 181 34 94 0 118 -4
165 -24 109 -48 187 -126 211 -209 10 -37 15 -43 33 -37 148 43 405 45 531 5
190 -61 407 -214 498 -351 60 -89 104 -244 136 -479 30 -212 12 -347 -61 -470
-45 -75 -132 -173 -211 -236 -203 -164 -440 -231 -733 -206 -177 16 -272 43
-375 108 -80 50 -242 196 -264 238 -9 16 -16 10 -58 -53 -51 -76 -54 -88 -34
-116 13 -17 15 -15 33 20 25 51 47 60 32 13 -6 -18 -18 -48 -26 -66 -13 -28
-14 -37 -3 -55 9 -14 14 -56 13 -129 0 -86 3 -108 14 -108 8 0 52 -20 97 -45
104 -56 214 -85 321 -85 124 0 133 17 43 84 -102 76 -209 109 -354 107 l-83 0
0 37 c1 29 13 54 55 112 62 83 73 72 25 -24 -17 -33 -28 -61 -25 -64 2 -3 28
6 57 18 61 26 138 51 138 44 0 -2 -22 -18 -50 -35 -55 -34 -63 -49 -25 -49 76
0 257 -81 327 -146 26 -24 52 -44 58 -44 6 0 10 32 10 84 0 80 11 115 24 80
10 -26 7 -196 -5 -236 -17 -64 -108 -188 -179 -245 -67 -54 -169 -109 -254
-138 -64 -21 -235 -33 -245 -17 -5 8 -15 1 -30 -19 -13 -17 -21 -32 -19 -34 2
-2 21 0 43 5 22 5 62 10 88 10 166 1 358 90 488 226 105 111 144 205 148 354
1 52 4 97 6 101 3 3 69 9 147 11 114 5 162 11 238 33 211 60 417 196 536 354
112 150 151 273 154 494 0 11 28 31 90 61 49 25 127 65 173 90 l83 45 393 5
c366 5 398 6 445 25 28 11 132 43 231 71 351 100 472 144 720 264 179 86 332
176 525 307 143 97 188 135 245 210 70 90 83 129 104 324 16 144 32 236 50
277 l17 40 59 -72 c32 -40 84 -92 114 -117 l54 -44 54 53 c30 29 72 80 95 113
40 59 40 61 35 130 -6 85 -39 173 -169 455 -110 237 -163 344 -189 381 -24 34
-65 161 -74 226 l-7 52 46 28 c57 35 59 57 9 113 l-38 42 -1 196 c0 115 3 205
9 217 22 44 90 114 117 120 15 3 48 19 72 34 55 35 94 107 137 251 56 188 69
256 77 419 4 101 6 108 49 187 28 50 45 95 45 115 0 76 -150 326 -388 646
-144 193 -164 204 -136 73 8 -40 19 -81 24 -90 5 -9 6 -27 3 -40 -5 -20 -11
-22 -52 -18 -56 6 -144 46 -188 87 l-32 29 3 99 4 98 74 155 c42 85 86 182 98
215 26 67 68 145 79 145 11 0 34 71 33 100 0 14 -31 97 -67 185 -91 217 -108
271 -102 324 4 36 41 125 98 233 16 31 10 132 -11 194 -12 34 -41 92 -65 130
-74 115 -82 135 -95 234 -14 114 -38 169 -88 203 -37 26 -212 97 -237 97 -8 0
-21 7 -30 16 -15 15 -15 35 1 112 3 16 1 21 -6 17 -17 -10 -4 65 37 225 18 74
41 167 49 205 9 39 20 72 25 73 5 2 9 15 9 30 0 14 5 51 11 81 15 69 -3 138
-56 223 -39 62 -130 138 -203 169 -66 29 -169 26 -236 -6 -130 -61 -253 -221
-332 -431 -30 -79 -50 -183 -64 -324 -16 -171 -84 -405 -131 -455 -19 -19 -19
-19 -34 0 -8 11 -15 41 -15 67 0 75 -52 200 -142 342 l-81 130 18 30 c57 94
65 119 65 191 0 86 -37 433 -52 490 -23 89 -106 187 -191 226 -48 21 -163 26
-218 8 -154 -50 -226 -119 -270 -261 -25 -78 -21 -77 -107 -25 -78 47 -122 86
-122 108 0 10 5 19 10 19 6 0 10 35 10 84 0 81 -8 104 -37 118 -10 4 -43 129
-43 163 0 62 -76 157 -160 198 -36 18 -62 22 -135 22 -133 0 -194 -36 -276
-162 -23 -35 -45 -63 -49 -63 -15 0 -68 102 -123 237 -50 120 -80 172 -130
228 -26 28 -29 53 -22 141 3 44 8 193 11 333 5 274 -3 353 -46 444 -25 54 -92
122 -145 149 -78 41 -223 33 -331 -16 -72 -33 -159 -118 -195 -188 -35 -69
-118 -341 -149 -488 -12 -58 -29 -117 -37 -133 l-14 -28 -37 48 c-63 84 -133
137 -227 173 -126 48 -212 26 -316 -80 -64 -66 -114 -171 -131 -277 -9 -51
-15 -63 -29 -63 -44 0 -12 -137 44 -188 30 -28 44 -102 27 -146 -9 -24 -14
-27 -38 -22 -50 13 -120 70 -212 173 -117 133 -154 158 -244 167 -37 4 -87 16
-109 28 -23 11 -66 29 -96 39 -93 32 -104 44 -97 96 8 64 62 171 109 217 39
39 137 222 137 258 0 9 5 20 10 23 6 3 10 21 10 40 0 19 -4 37 -10 40 -5 3
-10 14 -10 24 0 34 -71 161 -121 215 -94 103 -205 138 -309 98z m-3241 -2323
c6 -40 4 -109 -3 -117 -4 -3 -19 0 -34 9 -31 18 -32 41 -5 102 18 41 36 44 42
6z m8778 -751 c-3 -7 -5 -2 -5 12 0 14 2 19 5 13 2 -7 2 -19 0 -25z m-11603
-1283 c9 -18 16 -40 16 -49 0 -37 -114 -72 -139 -43 -16 20 -3 47 46 99 40 42
55 40 77 -7z m-672 -36 c148 -50 177 -90 73 -100 -105 -10 -336 2 -342 18 -7
19 13 40 72 74 61 35 111 37 197 8z m6822 -139 c312 -26 520 -161 597 -387 32
-94 32 -259 0 -351 -53 -154 -150 -267 -341 -396 -211 -144 -229 -165 -239
-276 l-6 -65 -232 -3 -233 -2 0 112 c0 235 56 326 303 497 114 79 171 133 193
187 31 75 7 156 -58 191 -27 15 -56 18 -158 18 -113 -1 -135 -4 -230 -34 -58
-18 -146 -52 -197 -76 l-92 -43 -31 56 c-44 82 -180 350 -180 356 0 10 127 75
219 111 168 66 322 100 496 108 33 2 62 4 65 5 3 1 59 -3 124 -8z m-30 -1759
c102 -50 146 -125 149 -251 2 -124 -49 -211 -157 -268 -46 -24 -61 -27 -161
-27 -94 0 -117 4 -160 23 -63 29 -100 64 -133 127 -24 44 -27 61 -26 140 0
101 13 140 64 199 60 68 143 97 271 93 74 -3 96 -8 153 -36z m-1320 -5117 c18
-47 -12 -120 -35 -83 -13 21 -11 87 4 92 20 9 25 8 31 -9z m-107 -276 c-3 -7
-5 -2 -5 12 0 14 2 19 5 13 2 -7 2 -19 0 -25z m193 -32 c0 -8 -7 -16 -15 -20
-17 -6 -18 -4 -9 18 8 20 24 21 24 2z m-133 -96 c26 20 41 21 28 1 -3 -6 -13
-11 -21 -11 -8 0 -13 -4 -10 -9 4 -5 -2 -8 -11 -7 -17 3 -36 49 -24 61 3 4 7
-7 9 -24 l3 -31 26 20z m3129 19 c38 -23 36 -21 28 -43 -5 -14 -10 -13 -35 5
-34 24 -56 59 -38 59 6 0 27 -9 45 -21z m-3658 -11 c-6 -16 -55 -44 -63 -36
-4 3 0 15 7 27 14 23 63 30 56 9z m579 -170 c-3 -8 -6 -5 -6 6 -1 11 2 17 5
13 3 -3 4 -12 1 -19z m-80 -151 c18 -34 50 -86 72 -116 23 -30 41 -58 41 -62
0 -11 -32 -16 -129 -18 l-93 -2 8 28 c4 15 8 65 9 109 1 85 21 139 48 128 7
-2 27 -33 44 -67z m150 47 c-3 -3 -12 -4 -19 -1 -8 3 -5 6 6 6 11 1 17 -2 13
-5z"/>
<path d="M991 9584 c0 -11 3 -14 6 -6 3 7 2 16 -1 19 -3 4 -6 -2 -5 -13z"/>
<path d="M7552 3612 c-33 -28 -82 -90 -82 -104 0 -16 42 -7 99 22 63 31 74 45
59 72 -17 35 -41 38 -76 10z"/>
<path d="M6231 3457 c-19 -7 -44 -25 -55 -40 -20 -27 -21 -43 -24 -252 -4
-266 0 -284 74 -317 92 -40 222 -7 242 62 4 14 7 124 7 245 0 189 -2 224 -17
251 -31 56 -142 81 -227 51z m153 -79 c13 -19 16 -58 16 -226 0 -244 -3 -252
-83 -252 -87 0 -87 -1 -87 247 0 200 1 214 20 233 30 30 113 28 134 -2z"/>
<path d="M6725 3439 l-35 -31 -10 27 c-6 15 -16 25 -23 22 -20 -6 -23 -70 -17
-348 l5 -264 30 0 30 0 5 250 c4 218 7 254 23 278 17 26 33 32 67 27 22 -3 24
-7 30 -63 5 -48 7 -52 34 -55 41 -5 47 7 40 72 -9 76 -44 116 -103 116 -31 0
-49 -7 -76 -31z"/>
<path d="M7102 3445 c-34 -28 -52 -32 -52 -10 0 8 -9 15 -20 15 -20 0 -20 -5
-18 -302 l3 -303 30 0 30 0 5 245 c4 219 7 248 24 277 11 17 28 34 39 37 29 7
57 -11 57 -38 0 -13 3 -38 6 -55 6 -29 10 -32 38 -29 l31 3 -3 55 c-4 61 -23
104 -51 120 -35 18 -87 12 -119 -15z"/>
<path d="M7441 3452 c-19 -9 -44 -30 -55 -45 -20 -27 -21 -42 -21 -257 0 -215
1 -230 21 -257 65 -89 242 -85 289 7 12 23 15 74 15 247 0 188 -2 223 -18 253
-22 46 -72 70 -142 70 -33 0 -69 -7 -89 -18z m152 -70 c14 -16 17 -49 18 -231
1 -253 1 -254 -90 -249 -79 4 -81 9 -81 260 0 203 0 207 22 222 32 22 110 21
131 -2z"/>
<path d="M8592 3459 c-20 -6 -41 -23 -52 -42 -18 -29 -20 -51 -20 -269 l0
-236 26 -31 c15 -18 42 -35 67 -42 52 -14 140 -6 174 16 47 31 53 66 53 302 0
234 -3 250 -53 287 -32 23 -140 32 -195 15z m159 -76 c11 -12 15 -66 17 -222
4 -199 3 -207 -18 -234 -18 -23 -29 -27 -69 -27 -80 0 -85 12 -89 204 -4 183
3 259 24 281 22 21 117 20 135 -2z"/>
<path d="M5665 3453 c-49 -12 -76 -72 -56 -125 21 -55 107 -73 131 -28 15 27
5 40 -30 40 -16 0 -30 7 -34 16 -9 24 2 34 39 34 69 0 65 15 65 -276 l0 -264
40 0 40 0 0 135 0 135 76 0 75 0 -3 33 -3 32 -72 3 -73 3 0 99 0 100 99 0 c95
0 99 1 115 25 9 14 14 30 11 35 -6 10 -381 12 -420 3z"/>
<path d="M8060 3162 c0 -254 2 -301 15 -312 22 -19 191 -9 233 14 55 29 62 59
62 286 0 291 -8 303 -197 309 l-113 3 0 -300z m216 207 c17 -19 18 -38 18
-221 -1 -197 -1 -202 -24 -220 -15 -12 -39 -18 -76 -18 l-54 0 0 233 c0 129 3
237 7 240 3 4 30 7 58 7 40 0 56 -5 71 -21z"/>
<path d="M4882 3395 c-46 -8 -92 -20 -103 -26 -19 -10 -17 -12 23 -39 52 -35
99 -90 172 -202 80 -126 185 -342 198 -411 2 -14 13 -9 58 28 33 27 103 67
172 98 99 43 118 56 118 74 0 30 -18 38 -39 19 -10 -9 -25 -16 -33 -16 -9 0
-38 -9 -64 -20 -45 -20 -76 -21 -72 -3 0 4 -4 21 -10 36 -7 16 -12 30 -12 33
0 2 25 31 55 64 30 32 57 70 61 84 5 23 -16 78 -35 90 -5 3 -24 -29 -41 -71
-18 -43 -40 -91 -50 -108 -10 -16 -23 -64 -30 -105 -14 -83 -46 -180 -61 -180
-23 0 -1 122 38 210 11 25 28 77 38 115 10 39 32 102 48 140 47 113 38 158
-36 181 -72 23 -286 28 -395 9z m341 -76 c20 -5 37 -13 37 -17 0 -4 -10 -23
-22 -42 -20 -31 -23 -48 -23 -151 0 -125 -8 -149 -51 -149 -17 0 -30 12 -50
48 -25 42 -71 114 -128 197 -28 41 -37 53 -64 80 l-24 24 34 10 c45 13 244 13
291 0z"/>
<path d="M9215 3405 c-5 -1 -43 -9 -82 -16 l-73 -12 0 -60 c0 -39 5 -66 15
-77 8 -9 30 -72 50 -140 19 -69 48 -163 65 -210 28 -80 41 -178 21 -166 -9 6
-41 108 -64 206 -17 74 -74 206 -84 196 -8 -8 -4 -186 5 -200 4 -6 9 4 12 21
4 23 9 30 18 24 10 -6 9 -15 -5 -42 -10 -19 -21 -36 -24 -39 -9 -7 -29 -47
-29 -57 0 -4 19 -17 42 -28 22 -11 63 -39 90 -64 27 -24 50 -42 52 -40 1 2 9
27 16 54 18 72 119 275 189 380 60 92 123 164 176 201 l30 21 -24 12 c-40 22
-171 40 -281 40 -58 0 -109 -2 -115 -4z m229 -81 c9 -3 16 -14 16 -24 0 -20
-27 -77 -41 -86 -15 -9 -98 -136 -123 -189 -23 -46 -41 -65 -63 -65 -39 0 -47
25 -48 149 0 104 -2 119 -22 148 -13 17 -23 35 -23 41 0 5 19 14 43 19 47 12
236 16 261 7z"/>
<path d="M4595 3282 c-159 -100 -321 -289 -289 -339 19 -30 258 -154 404 -209
52 -19 133 -56 179 -80 46 -24 85 -43 87 -41 2 2 -15 25 -37 53 -51 61 -130
217 -169 332 -31 93 -60 239 -60 303 0 25 -5 39 -12 38 -7 0 -53 -26 -103 -57z
m80 -197 c12 -49 38 -134 58 -187 20 -54 32 -100 28 -103 -5 -2 -35 -3 -67 0
-33 2 -71 4 -86 5 -30 0 -98 53 -98 77 0 8 -25 25 -55 38 -30 14 -55 31 -55
38 0 34 130 180 188 211 53 28 63 19 87 -79z"/>
<path d="M9687 3333 c-2 -5 -4 -35 -5 -68 -6 -134 -45 -270 -123 -428 -71
-145 -147 -243 -170 -220 -8 8 3 28 35 69 91 118 157 262 201 438 29 116 33
186 10 186 -9 0 -36 -21 -60 -46 -104 -106 -220 -305 -286 -488 -22 -61 -38
-90 -50 -93 -11 -3 -19 -9 -19 -14 0 -19 -21 -7 -78 44 -32 28 -72 59 -87 67
-26 14 -29 13 -39 -5 -6 -11 -37 -47 -69 -81 l-57 -61 117 -28 c65 -16 123
-33 130 -39 7 -6 15 -29 18 -51 6 -36 2 -46 -38 -99 -55 -72 -122 -207 -142
-284 -23 -88 -41 -280 -28 -293 27 -27 194 141 260 261 39 70 93 241 93 294 0
33 17 53 31 39 9 -9 8 -32 -5 -100 -44 -220 -134 -367 -322 -521 -36 -31 -27
-36 91 -57 125 -22 446 -17 470 7 7 7 -112 403 -135 448 -20 40 -50 154 -50
191 0 13 -7 35 -16 48 -26 36 -3 45 40 16 183 -124 338 -175 531 -175 127 0
185 9 185 28 0 32 -113 122 -215 172 -146 72 -202 84 -372 83 -79 0 -143 3
-143 7 0 20 331 179 375 180 5 0 21 10 35 21 l25 20 -97 -4 c-54 -2 -100 -2
-102 1 -3 2 1 17 9 33 24 46 85 220 85 242 0 11 5 37 11 56 7 20 13 42 15 49
9 32 178 -98 223 -172 29 -47 26 -63 -16 -85 -36 -18 -120 -107 -111 -116 2
-3 60 24 129 59 91 48 125 70 127 85 5 32 -46 118 -112 189 -58 62 -163 140
-245 182 -45 22 -48 23 -54 13z m-230 -457 c-13 -23 -15 -24 -21 -9 -4 10 -2
19 3 21 6 2 8 9 5 14 -4 7 -2 8 4 4 7 -4 12 -1 13 6 0 8 2 9 5 2 3 -6 -2 -23
-9 -38z m-40 -28 c-3 -8 -6 -5 -6 6 -1 11 2 17 5 13 3 -3 4 -12 1 -19z m-7
-38 c0 -5 -2 -10 -4 -10 -3 0 -8 5 -11 10 -3 6 -1 10 4 10 6 0 11 -4 11 -10z
m-100 -240 c0 -5 -5 -10 -11 -10 -5 0 -7 5 -4 10 3 6 8 10 11 10 2 0 4 -4 4
-10z m-33 -32 c-3 -8 -6 -5 -6 6 -1 11 2 17 5 13 3 -3 4 -12 1 -19z m243 -48
c0 -6 10 -8 23 -5 20 4 66 -19 56 -29 -7 -7 -99 25 -99 35 0 5 5 9 10 9 6 0
10 -5 10 -10z m233 -87 c-7 -2 -19 -2 -25 0 -7 3 -2 5 12 5 14 0 19 -2 13 -5z
m87 -23 c0 -5 -2 -10 -4 -10 -3 0 -8 5 -11 10 -3 6 -1 10 4 10 6 0 11 -4 11
-10z m-653 -112 c-3 -8 -6 -5 -6 6 -1 11 2 17 5 13 3 -3 4 -12 1 -19z m203
-93 c39 -20 53 -71 39 -137 -9 -39 -7 -64 6 -123 9 -41 13 -80 9 -86 -5 -8
-45 -10 -138 -6 -128 6 -176 13 -176 26 0 3 17 25 38 48 20 23 50 57 66 75 15
18 48 75 73 126 24 50 47 92 49 92 3 0 18 -7 34 -15z m-314 -36 c-14 -32 -15
-32 -16 -8 0 14 5 30 12 37 18 18 20 8 4 -29z m28 -44 c-6 -16 -24 -21 -24 -7
0 11 11 22 21 22 5 0 6 -7 3 -15z m-34 -44 c0 -6 -4 -12 -9 -15 -13 -8 -42 4
-35 15 7 12 44 12 44 0z m-30 -30 c0 -5 -7 -14 -15 -21 -16 -14 -18 -10 -9 14
6 17 24 22 24 7z"/>
<path d="M4753 3243 c15 -171 111 -420 211 -547 48 -62 55 -81 34 -89 -10 -4
-10 -6 0 -6 6 -1 12 -7 12 -15 0 -11 -34 -14 -162 -19 -174 -5 -246 -20 -352
-74 -78 -40 -216 -149 -216 -172 0 -15 28 -21 119 -28 188 -13 367 33 544 141
42 25 80 46 86 46 14 0 14 -23 0 -37 -7 -7 -13 -29 -15 -50 -8 -76 -27 -149
-49 -188 -12 -22 -29 -65 -37 -95 -9 -30 -35 -119 -58 -198 -34 -110 -41 -145
-31 -155 17 -17 319 -22 423 -8 80 12 148 28 148 36 0 3 -44 48 -97 102 -105
105 -155 180 -203 305 -34 87 -57 205 -46 233 12 31 26 3 45 -91 31 -149 79
-254 159 -351 38 -46 160 -153 174 -153 14 0 9 166 -7 242 -27 129 -70 227
-149 337 -26 37 -46 76 -46 90 0 51 11 70 44 76 17 3 78 20 135 37 l103 32 -6
51 c-4 27 -7 55 -8 60 -1 6 2 27 6 49 7 38 7 38 -21 31 -49 -12 -186 -83 -242
-126 -53 -40 -53 -40 -86 -25 -26 13 -35 25 -44 63 -31 126 -197 412 -301 519
-62 64 -74 60 -67 -23z m137 -210 c0 -7 -4 -13 -10 -13 -5 0 -10 6 -10 14 0 8
-3 23 -6 33 -6 16 -5 16 9 -2 9 -11 17 -26 17 -32z m40 -55 c0 -5 -5 -8 -11
-8 -6 0 3 -12 20 -26 17 -14 31 -34 31 -45 0 -10 5 -19 11 -19 5 0 7 -4 4 -10
-3 -5 -1 -10 4 -10 6 0 11 -7 11 -16 0 -9 8 -28 18 -42 24 -34 44 -92 32 -92
-11 0 -50 54 -50 69 0 6 -5 11 -11 11 -5 0 -7 5 -4 10 3 6 2 10 -3 10 -5 0
-16 17 -25 38 -9 20 -30 60 -45 87 -32 56 -33 82 -1 62 10 -6 19 -15 19 -19z
m470 -286 c-8 -2 -25 -8 -37 -14 -13 -6 -26 -8 -30 -5 -3 4 1 7 10 7 10 0 17
4 17 9 0 11 31 20 45 12 5 -2 2 -6 -5 -9z m-287 -227 c-3 -9 -8 -14 -10 -11
-3 3 -2 9 2 15 9 16 15 13 8 -4z m-415 -2 c-10 -2 -18 -8 -18 -13 0 -4 -9 -10
-20 -13 -13 -3 -18 -1 -13 6 4 7 -1 6 -11 -2 -13 -11 -14 -16 -4 -22 7 -4 9
-11 5 -15 -4 -4 -16 1 -27 11 -19 17 -20 17 -20 0 0 -15 -6 -17 -35 -12 -19 3
-35 2 -35 -4 0 -5 -5 -9 -12 -9 -8 0 -6 6 4 17 21 20 144 63 178 62 17 -1 19
-3 8 -6z m40 -20 c-10 -2 -18 -9 -18 -14 0 -5 -4 -9 -10 -9 -5 0 -10 7 -10 15
0 10 9 15 28 14 16 -1 20 -3 10 -6z m462 -62 c0 -12 8 -21 23 -24 17 -3 16 -5
-8 -6 -25 -1 -30 3 -31 24 -1 14 2 25 7 25 5 0 9 -9 9 -19z m40 -156 c0 -8 -2
-15 -4 -15 -2 0 -6 7 -10 15 -3 8 -1 15 4 15 6 0 10 -7 10 -15z m-68 -248 c31
-41 68 -87 82 -102 19 -20 23 -32 16 -39 -7 -7 -71 -11 -168 -11 -134 0 -157
2 -155 15 1 8 6 40 13 70 14 67 14 140 0 154 -26 26 -1 79 55 116 l29 19 36
-74 c20 -40 62 -107 92 -148z m104 178 c4 -26 -13 -16 -19 11 -3 18 -1 22 6
15 6 -6 12 -18 13 -26z m75 -102 c13 -16 12 -17 -3 -4 -10 7 -18 15 -18 17 0
8 8 3 21 -13z"/>
<path d="M4275 2898 c-13 -40 -36 -145 -50 -237 -17 -102 -26 -324 -14 -335 3
-4 40 27 81 68 115 113 260 179 487 223 l44 8 -29 15 c-16 8 -78 42 -139 76
-60 34 -134 72 -163 83 -60 24 -133 61 -179 92 -26 16 -34 18 -38 7z m175
-147 c93 -7 130 -24 152 -73 7 -16 16 -28 20 -28 5 0 8 -4 8 -9 0 -8 -55 -26
-62 -21 -2 2 -19 -7 -38 -19 -19 -11 -46 -26 -59 -31 -14 -6 -56 -32 -94 -57
-51 -34 -71 -43 -77 -33 -11 18 -1 177 16 238 12 44 18 52 32 46 9 -4 55 -10
102 -13z"/>
<path d="M10062 2874 c-29 -19 -90 -51 -135 -70 -45 -19 -140 -67 -211 -106
-130 -71 -143 -87 -71 -88 17 0 64 -9 105 -21 156 -43 331 -146 388 -229 15
-21 32 -38 37 -36 17 5 17 213 0 331 -17 115 -43 235 -54 247 -4 4 -30 -8 -59
-28z m22 -136 c4 -18 9 -69 12 -113 2 -44 6 -91 9 -105 2 -14 0 -32 -5 -40 -7
-12 -11 -12 -27 1 -29 25 -173 109 -186 109 -7 0 -17 4 -22 9 -6 5 -27 14 -47
21 -32 10 -38 16 -38 39 0 21 10 35 44 59 38 28 53 32 108 32 34 0 70 5 78 10
8 5 27 10 41 10 22 0 28 -6 33 -32z"/>
<path d="M7667 2673 l-28 -28 -19 23 c-10 12 -23 22 -29 22 -17 0 -15 -607 1
-612 7 -3 23 -2 35 0 l23 4 0 235 c0 197 3 239 16 266 20 39 31 47 66 47 34 0
38 -7 39 -69 2 -51 2 -51 35 -51 42 0 48 10 39 76 -10 79 -42 114 -104 114
-37 0 -52 -5 -74 -27z"/>
<path d="M8002 2686 c-40 -21 -62 -66 -62 -123 0 -51 1 -53 28 -53 38 0 52 17
52 61 0 46 21 64 72 63 66 -2 79 -23 76 -123 l-3 -86 -88 -5 c-85 -5 -90 -6
-118 -38 -28 -31 -29 -36 -29 -130 0 -106 9 -133 53 -166 40 -30 124 -29 165
1 l30 22 26 -20 c57 -45 132 -33 159 24 26 55 22 123 -9 154 -14 14 -28 23
-31 20 -2 -3 -7 -34 -9 -69 -3 -35 -7 -69 -9 -75 -5 -16 -41 -17 -50 -2 -4 6
-8 115 -10 243 -3 252 -5 264 -58 296 -38 23 -148 27 -185 6z m156 -338 c7 -7
12 -41 12 -84 0 -70 -1 -73 -35 -103 -46 -40 -97 -43 -121 -6 -13 20 -16 41
-12 96 7 90 23 109 93 109 28 0 56 -5 63 -12z"/>
<path d="M6344 2677 c-3 -8 -4 -133 -2 -280 3 -262 3 -266 26 -290 46 -49 179
-61 238 -22 55 36 56 44 58 333 l1 267 -35 0 -35 0 -5 -263 c-6 -300 -3 -292
-91 -292 -39 0 -51 5 -67 25 -18 23 -19 38 -14 280 l5 255 -37 0 c-21 0 -39
-6 -42 -13z"/>
<path d="M6857 2683 c-4 -3 -7 -141 -7 -305 l0 -299 123 3 122 3 0 25 c0 24
-2 25 -85 30 l-85 5 3 253 c2 139 0 262 -3 272 -6 20 -53 29 -68 13z"/>
<path d="M7210 2409 l0 -281 29 -28 c51 -52 126 -52 175 -1 25 26 28 36 29
112 l2 84 -35 0 -35 0 -3 -70 c-2 -38 -8 -75 -14 -82 -15 -18 -65 -16 -72 3
-3 9 -6 119 -6 245 l0 229 54 0 c73 0 86 6 86 41 l0 29 -105 0 -105 0 0 -281z"/>
<path d="M8812 2607 c-35 -11 -38 -30 -6 -35 30 -5 64 -24 64 -36 -1 -6 -19
-31 -40 -56 l-40 -45 -117 -6 c-65 -3 -119 -5 -120 -4 -2 1 -4 36 -5 78 l-2
76 -45 16 c-24 8 -46 15 -47 15 -1 0 -1 -24 1 -52 2 -29 4 -62 4 -73 1 -12 19
-39 40 -62 21 -22 47 -55 56 -72 12 -24 21 -31 33 -26 9 4 53 18 97 31 44 13
136 50 205 82 69 33 142 67 164 76 21 9 36 19 34 22 -3 2 -52 18 -108 34 -57
16 -108 34 -114 40 -11 11 -10 11 -54 -3z"/>
<path d="M5440 2575 c-25 -8 -64 -19 -87 -25 -24 -6 -43 -14 -43 -19 0 -4 19
-13 42 -20 22 -7 84 -35 137 -63 53 -28 159 -71 236 -97 77 -26 147 -51 157
-55 11 -5 18 -2 22 11 9 29 36 215 36 251 0 33 0 33 -42 30 l-43 -3 3 -41 c2
-23 -1 -59 -7 -81 l-11 -40 -93 3 c-127 5 -140 9 -186 59 -47 51 -45 71 5 81
19 3 37 10 40 15 8 14 -115 9 -166 -6z"/>
<path d="M5310 2457 c0 -2 24 -47 54 -100 85 -154 126 -307 126 -468 0 -32 4
-59 8 -59 18 0 150 100 213 162 68 67 112 124 148 195 26 51 26 69 4 77 -77
25 -139 49 -203 76 -72 30 -329 120 -343 120 -4 0 -7 -1 -7 -3z m300 -115 c30
-15 59 -37 65 -50 5 -12 14 -22 20 -22 5 0 28 -7 52 -16 l42 -16 -18 -37 c-33
-65 -195 -236 -212 -225 -5 3 -9 15 -9 27 0 35 -45 206 -74 281 -14 37 -26 72
-26 77 0 21 106 8 160 -19z"/>
<path d="M9040 2451 c-8 -5 -52 -21 -97 -36 -94 -30 -112 -45 -56 -45 64 0 65
-8 17 -148 -24 -70 -44 -136 -44 -147 0 -11 -7 -33 -15 -49 -12 -22 -12 -32
-4 -42 9 -11 8 -14 -1 -14 -6 0 -45 34 -86 75 -109 110 -164 205 -118 205 22
0 124 68 124 82 0 12 -6 10 -105 -26 l-70 -25 3 -96 4 -95 86 -88 c78 -80 196
-172 220 -172 5 0 12 53 15 118 8 171 50 302 144 450 18 29 33 55 33 57 0 8
-34 5 -50 -4z"/>
<path d="M4878 2350 c-54 -26 -135 -57 -180 -69 -107 -30 -283 -38 -390 -19
-55 10 -78 11 -78 3 0 -6 15 -42 34 -80 47 -99 148 -208 273 -298 56 -41 180
-101 229 -111 l31 -7 13 73 c15 86 47 183 84 256 15 30 34 86 41 125 8 40 22
94 31 120 9 26 15 49 13 51 -2 2 -48 -18 -101 -44z m13 -129 c10 -49 -5 -87
-53 -140 -26 -27 -49 -65 -57 -91 -22 -74 -33 -100 -42 -100 -5 0 -9 4 -9 9 0
5 -13 11 -29 14 -67 14 -242 153 -279 224 -15 27 -8 29 106 43 92 11 237 44
287 66 47 21 68 14 76 -25z"/>
<path d="M9420 2393 c0 -27 56 -235 71 -264 37 -71 87 -215 99 -286 12 -72 12
-73 38 -67 52 13 151 62 236 119 133 89 260 237 291 339 15 48 15 48 -8 41
-176 -55 -442 -20 -649 86 -43 21 -78 36 -78 32z m194 -158 c62 -25 254 -58
311 -54 17 2 39 -3 51 -11 20 -12 20 -14 5 -34 -44 -58 -144 -147 -211 -188
-105 -65 -126 -66 -136 -10 -6 35 -26 83 -45 106 -4 6 -22 27 -38 47 -44 52
-53 83 -41 130 13 46 21 47 104 14z"/>
<path d="M6081 2068 c-5 -13 -22 -54 -37 -93 -15 -38 -31 -74 -35 -80 -3 -5
-10 -32 -14 -60 -4 -27 -11 -58 -17 -68 -19 -36 -2 -36 46 -2 27 19 55 35 62
35 14 0 39 38 31 47 -3 2 -19 -3 -37 -12 -18 -9 -34 -15 -36 -12 -2 2 -5 23
-6 47 -1 37 3 47 33 75 48 45 57 64 47 102 -11 42 -26 50 -37 21z"/>
<path d="M6425 1810 c-53 -12 -111 -48 -125 -77 -7 -15 -15 -72 -18 -125 l-4
-98 71 0 71 0 0 74 c0 94 13 111 79 102 25 -3 49 -10 54 -15 5 -5 8 -37 5 -70
-5 -69 -5 -69 -221 -368 -63 -87 -67 -95 -67 -148 l0 -55 215 0 216 0 -3 58
-3 57 -110 3 c-60 1 -114 7 -119 12 -5 5 4 24 21 47 52 65 184 266 199 302 8
18 14 63 14 100 0 88 -29 147 -85 177 -43 23 -142 36 -190 24z"/>
<path d="M6970 1811 c-53 -11 -96 -37 -122 -73 -23 -33 -23 -35 -23 -323 0
-288 0 -290 23 -323 34 -48 94 -74 179 -80 64 -4 79 -1 125 22 89 44 92 52 99
271 8 261 -1 397 -27 432 -44 60 -162 94 -254 74z m133 -140 c16 -16 17 -505
1 -521 -15 -15 -111 -15 -129 0 -13 10 -15 54 -15 259 0 135 4 251 8 257 4 6
14 14 22 17 22 10 100 1 113 -12z"/>
<path d="M7535 1811 c-103 -26 -135 -77 -135 -211 l0 -90 65 0 65 0 0 70 c0
57 4 74 20 90 35 35 115 18 126 -27 15 -60 -6 -106 -121 -268 -166 -233 -166
-233 -170 -291 l-5 -54 215 0 215 0 0 60 0 60 -120 0 c-66 0 -120 2 -120 4 0
2 43 66 96 142 141 204 147 217 142 330 -3 87 -5 95 -33 124 -16 18 -41 38
-55 45 -32 16 -145 26 -185 16z"/>
<path d="M8102 1810 c-67 -7 -100 -26 -136 -74 -17 -22 -22 -46 -25 -117 -1
-49 -1 -95 2 -102 3 -8 25 -11 71 -9 l66 4 0 79 c0 77 1 80 28 90 17 7 42 7
67 2 l40 -8 3 -80 c3 -96 -6 -114 -66 -122 -42 -6 -42 -6 -43 -49 -1 -24 -2
-50 -3 -56 -1 -7 6 -12 14 -10 25 6 79 -8 95 -24 19 -19 21 -164 3 -182 -16
-16 -113 -15 -126 1 -6 7 -12 46 -14 87 l-3 75 -69 3 -68 4 4 -99 c4 -118 24
-159 90 -189 56 -25 198 -26 244 -1 53 28 82 71 90 133 10 83 0 185 -21 218
-18 27 -18 30 -1 80 24 70 19 204 -9 261 -35 70 -111 97 -233 85z"/>
<path d="M9293 1603 c9 -2 25 -2 35 0 9 3 1 5 -18 5 -19 0 -27 -2 -17 -5z"/>
<path d="M6061 1574 c0 -11 3 -14 6 -6 3 7 2 16 -1 19 -3 4 -6 -2 -5 -13z"/>
<path d="M6063 1522 c-8 -5 -9 -13 -3 -22 11 -17 23 -8 18 14 -2 9 -8 12 -15
8z"/>
<path d="M8540 1477 c0 -23 4 -57 9 -75 5 -18 11 -66 12 -108 2 -41 7 -78 13
-81 5 -3 7 17 4 50 -2 31 -1 54 4 51 14 -9 25 -68 17 -92 -8 -20 -1 -77 17
-134 4 -15 -1 -18 -35 -18 -40 0 -71 -20 -71 -46 0 -13 58 -13 156 2 39 6 41
-7 -36 234 -33 102 -62 202 -65 223 -8 51 -25 47 -25 -6z"/>
<path d="M5749 1450 c-108 -57 -289 -89 -404 -71 -38 5 -71 9 -73 7 -9 -10 56
-121 99 -169 59 -67 165 -140 239 -166 60 -21 70 -20 70 10 0 11 19 74 41 142
23 67 48 145 55 172 7 28 16 60 19 73 9 27 1 27 -46 2z m-4 -79 c5 -9 -21 -86
-37 -106 -4 -5 -19 -24 -33 -41 -28 -36 -48 -82 -40 -95 10 -15 -28 3 -87 43
-65 44 -176 143 -168 151 3 3 51 8 106 11 60 4 122 14 155 25 60 22 95 26 104
12z"/>
<path d="M8616 1398 c13 -40 39 -116 57 -168 19 -52 38 -113 41 -135 11 -65
16 -69 67 -49 119 47 291 201 326 292 9 23 14 44 12 46 -2 2 -37 -2 -78 -8
-97 -13 -223 8 -346 58 -49 20 -92 36 -96 36 -4 0 4 -33 17 -72z m139 -39 c37
-13 95 -23 153 -27 72 -4 92 -8 92 -19 0 -25 -114 -127 -180 -162 -65 -35 -79
-33 -80 12 0 22 -25 71 -56 113 -15 19 -24 45 -24 67 0 45 10 46 95 16z"/>
<path d="M8552 1100 c0 -14 2 -19 5 -12 2 6 2 18 0 25 -3 6 -5 1 -5 -13z"/>
</g>
</svg>
